<svg width="29" height="28" viewBox="0 0 29 28" fill="none" xmlns="http://www.w3.org/2000/svg">
<path fill-rule="evenodd" clip-rule="evenodd" d="M12.5781 1.23171C13.1745 0.946736 13.8271 0.798828 14.488 0.798828C15.149 0.798828 15.8016 0.946736 16.3979 1.23171C16.9236 1.48301 17.4031 1.89324 18.0701 2.46105L18.1761 2.5507C18.4994 2.82646 18.6012 2.91068 18.7045 2.97995C18.9666 3.15654 19.2614 3.27744 19.5698 3.33857C19.692 3.36302 19.8238 3.37524 20.2476 3.40784L20.3848 3.41871C21.2569 3.48799 21.8872 3.53825 22.436 3.73114C23.0594 3.95205 23.6256 4.30938 24.0932 4.77705C24.5609 5.24472 24.9182 5.81093 25.1391 6.43433C25.332 6.98312 25.3809 7.61341 25.4516 8.48549L25.4624 8.62269C25.495 9.04651 25.5073 9.17963 25.5317 9.30052C25.5928 9.61024 25.7151 9.90501 25.8903 10.1672C25.9596 10.2691 26.0438 10.3709 26.3196 10.6942L26.4092 10.8002C26.9784 11.4658 27.3873 11.9467 27.6386 12.471C28.2159 13.68 28.2159 15.0845 27.6386 16.2921C27.3886 16.8178 26.9784 17.2973 26.4092 17.9643L26.3196 18.0703C26.1673 18.2387 26.024 18.4151 25.8903 18.5987C25.7137 18.8608 25.5928 19.1556 25.5317 19.464C25.5073 19.5862 25.4964 19.718 25.4624 20.1418L25.4502 20.279C25.3823 21.1511 25.332 21.7814 25.1378 22.3302C24.9179 22.9539 24.5611 23.5205 24.0935 23.9882C23.626 24.456 23.0596 24.8131 22.436 25.0334C21.8872 25.2262 21.2569 25.2751 20.3848 25.3458L20.2476 25.3567C20.0206 25.3678 19.7943 25.3909 19.5698 25.4259C19.2605 25.4871 18.9664 25.609 18.7045 25.7845C18.5206 25.9183 18.3437 26.0616 18.1747 26.2138L18.0701 26.3034C17.4045 26.8726 16.9236 27.2815 16.3993 27.5328C15.8027 27.818 15.1499 27.966 14.4887 27.966C13.8275 27.966 13.1747 27.818 12.5781 27.5328C12.0525 27.2828 11.5729 26.8726 10.906 26.3034C10.8707 26.2735 10.8354 26.2437 10.8 26.2138C10.632 26.0616 10.456 25.9183 10.273 25.7845C10.0108 25.6085 9.71619 25.4866 9.40632 25.4259C9.18175 25.3909 8.95549 25.3678 8.72848 25.3567L8.59129 25.3444C7.7192 25.2765 7.08891 25.2262 6.54012 25.032C5.91643 24.812 5.34992 24.4551 4.88215 23.9876C4.41438 23.5201 4.05724 22.9537 3.83693 22.3302C3.64404 21.7814 3.59378 21.1511 3.5245 20.279L3.51364 20.1418C3.50247 19.9148 3.47935 19.6885 3.44436 19.464C3.38318 19.1547 3.2613 18.8606 3.08575 18.5987C2.95212 18.4146 2.80884 18.2378 2.6565 18.0689L2.56684 17.9643C1.99904 17.2987 1.5888 16.8178 1.3375 16.2935C1.05232 15.697 0.904297 15.0441 0.904297 14.3829C0.904297 13.7217 1.05232 13.0689 1.3375 12.4724C1.5888 11.9467 1.99904 11.4672 2.56684 10.8002L2.6565 10.6942C2.80872 10.5262 2.952 10.3503 3.08575 10.1672C3.26234 9.90501 3.38323 9.61024 3.44436 9.30052C3.46881 9.17827 3.48104 9.04651 3.51364 8.62269L3.5245 8.48549C3.59378 7.61341 3.64404 6.98312 3.83693 6.43433C4.05707 5.8105 4.41414 5.24389 4.88191 4.77612C5.34968 4.30834 5.91629 3.95128 6.54012 3.73114C7.08891 3.53825 7.7192 3.48799 8.59129 3.41871L8.72848 3.40784C8.95555 3.39746 9.18185 3.37433 9.40632 3.33857C9.71603 3.27744 10.0108 3.15518 10.273 2.97995C10.3748 2.91068 10.4767 2.82646 10.8 2.5507L10.906 2.46105C11.5716 1.89324 12.0538 1.48301 12.5781 1.23171ZM15.5163 3.0764C15.1952 2.92299 14.8439 2.84337 14.488 2.84337C14.1322 2.84337 13.7808 2.92299 13.4597 3.0764C13.2084 3.19594 12.9436 3.41192 12.1272 4.10606L12.0864 4.14002C11.8188 4.36822 11.6246 4.53531 11.4113 4.67794C10.9236 5.00395 10.3776 5.2308 9.80161 5.34355C9.55031 5.39381 9.29493 5.41418 8.94311 5.44271L8.89149 5.44678C7.82244 5.53236 7.4842 5.56768 7.22067 5.66005C6.54148 5.90048 6.00628 6.43433 5.7672 7.11488C5.67211 7.37841 5.63815 7.71665 5.55258 8.7857L5.5485 8.83732C5.52133 9.18914 5.4996 9.44451 5.4507 9.69582C5.33659 10.2718 5.1111 10.8178 4.78509 11.3055C4.6411 11.5188 4.47402 11.713 4.24581 11.982L4.21185 12.0214C3.51771 12.8364 3.30173 13.1026 3.18219 13.3526C3.02857 13.6739 2.94884 14.0255 2.94884 14.3816C2.94884 14.7377 3.02857 15.0893 3.18219 15.4105C3.30173 15.6618 3.51771 15.9267 4.21185 16.7431L4.24581 16.7839C4.47402 17.0515 4.6411 17.2457 4.78373 17.459C5.10974 17.9467 5.33659 18.4927 5.44934 19.0673C5.4996 19.32 5.51997 19.5754 5.5485 19.9272L5.55258 19.9788C5.63815 21.0478 5.67347 21.3861 5.76584 21.6496C6.00628 22.3288 6.54012 22.864 7.22067 23.1031C7.4842 23.1982 7.82244 23.2321 8.89149 23.3177L8.94311 23.3218C9.29493 23.349 9.55031 23.3707 9.80161 23.4196C10.3776 23.5337 10.9236 23.7592 11.4113 24.0852C11.6246 24.2292 11.8188 24.3963 12.0878 24.6245L12.1272 24.6584C12.9422 25.3526 13.2084 25.5686 13.4584 25.6881C13.7797 25.8417 14.1313 25.9214 14.4874 25.9214C14.8435 25.9214 15.1951 25.8417 15.5163 25.6881C15.7676 25.5686 16.0325 25.3526 16.8489 24.6584L16.8897 24.6245C17.1573 24.3963 17.3515 24.2292 17.5648 24.0866C18.0516 23.7605 18.5983 23.5342 19.1731 23.4209C19.4576 23.3714 19.7447 23.3383 20.033 23.3218L20.0846 23.3177C21.1536 23.2321 21.4919 23.1968 21.7554 23.1044C22.4346 22.864 22.9698 22.3302 23.2089 21.6496C23.304 21.3861 23.3379 21.0465 23.4235 19.9788L23.4276 19.9272C23.4436 19.6389 23.4763 19.3518 23.5254 19.0673C23.6395 18.4927 23.865 17.9467 24.191 17.459C24.335 17.2457 24.5021 17.0515 24.7303 16.7825L24.7642 16.7431C25.4584 15.9281 25.6744 15.6618 25.7939 15.4119C25.9475 15.0906 26.0272 14.739 26.0272 14.3829C26.0272 14.0268 25.9475 13.6752 25.7939 13.3539C25.6744 13.1026 25.4584 12.8378 24.7642 12.0214L24.7303 11.9806C24.5021 11.713 24.335 11.5188 24.1924 11.3055C23.8662 10.8183 23.6399 10.2711 23.5267 9.69582C23.4772 9.41179 23.4441 9.12515 23.4276 8.83732L23.4235 8.7857C23.3379 7.71665 23.3026 7.37841 23.2102 7.11488C22.9698 6.43569 22.436 5.90048 21.7554 5.66141C21.4919 5.56632 21.1523 5.53236 20.0846 5.44678L20.033 5.44271C19.7447 5.42654 19.4576 5.39389 19.1731 5.3449C18.5983 5.23155 18.0516 5.00532 17.5648 4.67929C17.3515 4.53531 17.1573 4.36822 16.8883 4.14002L16.8489 4.10606C16.0339 3.41192 15.7676 3.19594 15.5177 3.0764H15.5163Z" fill="white"/>
<path fill-rule="evenodd" clip-rule="evenodd" d="M19.2997 9.57027C19.3947 9.66525 19.4701 9.77802 19.5215 9.90213C19.5729 10.0262 19.5994 10.1593 19.5994 10.2936C19.5994 10.428 19.5729 10.561 19.5215 10.6851C19.4701 10.8092 19.3947 10.922 19.2997 11.017L11.1209 19.1944C10.9275 19.3777 10.6702 19.4782 10.4038 19.4747C10.1374 19.4711 9.88293 19.3638 9.69446 19.1755C9.50599 18.9872 9.39842 18.7328 9.39463 18.4664C9.39085 18.2 9.49114 17.9427 9.67418 17.7491L17.853 9.57163C17.948 9.47663 18.0608 9.40127 18.1849 9.34985C18.309 9.29844 18.442 9.27197 18.5764 9.27197C18.7107 9.27197 18.8437 9.29844 18.9678 9.34985C19.0919 9.40127 19.2047 9.47663 19.2997 9.57163V9.57027Z" fill="white"/>
<path d="M19.2588 17.791C19.2645 17.9736 19.2336 18.1555 19.1676 18.326C19.1017 18.4964 19.0023 18.6518 18.8751 18.783C18.748 18.9143 18.5957 19.0186 18.4275 19.0899C18.2592 19.1611 18.0784 19.1978 17.8956 19.1978C17.7129 19.1978 17.5321 19.1611 17.3638 19.0899C17.1955 19.0186 17.0433 18.9143 16.9162 18.783C16.789 18.6518 16.6895 18.4964 16.6236 18.326C16.5577 18.1555 16.5267 17.9736 16.5325 17.791C16.5437 17.4369 16.6922 17.1011 16.9466 16.8545C17.201 16.608 17.5414 16.4702 17.8956 16.4702C18.2499 16.4702 18.5903 16.608 18.8447 16.8545C19.0991 17.1011 19.2476 17.4369 19.2588 17.791ZM12.4438 10.9746C12.4495 11.1572 12.4185 11.3391 12.3526 11.5096C12.2867 11.68 12.1872 11.8354 12.0601 11.9667C11.9329 12.0979 11.7807 12.2022 11.6125 12.2735C11.4442 12.3447 11.2633 12.3814 11.0806 12.3814C10.8979 12.3814 10.717 12.3447 10.5488 12.2735C10.3805 12.2022 10.2283 12.0979 10.1012 11.9667C9.974 11.8354 9.87452 11.68 9.80861 11.5096C9.7427 11.3391 9.71171 11.1572 9.71748 10.9746C9.72865 10.6205 9.87717 10.2847 10.1316 10.0382C10.386 9.79165 10.7264 9.65381 11.0806 9.65381C11.4349 9.65381 11.7752 9.79165 12.0296 10.0382C12.2841 10.2847 12.4326 10.6205 12.4438 10.9746Z" fill="white"/>
</svg>
