<svg width="31" height="36" viewBox="0 0 31 36" fill="none" xmlns="http://www.w3.org/2000/svg">
<path fill-rule="evenodd" clip-rule="evenodd" d="M13.528 4.70964C14.1344 4.41983 14.7981 4.26941 15.4703 4.26941C16.1424 4.26941 16.8061 4.41983 17.4126 4.70964C17.9472 4.9652 18.4348 5.3824 19.1131 5.95984L19.2209 6.05101C19.5496 6.33144 19.6532 6.41709 19.7582 6.48755C20.0248 6.66713 20.3246 6.79008 20.6382 6.85224C20.7625 6.87711 20.8965 6.88954 21.3275 6.9227L21.4671 6.93375C22.354 7.0042 22.9949 7.05532 23.553 7.25148C24.187 7.47614 24.7628 7.83953 25.2384 8.31514C25.714 8.79075 26.0774 9.36656 26.3021 10.0005C26.4983 10.5586 26.548 11.1996 26.6198 12.0865L26.6309 12.226C26.664 12.657 26.6765 12.7924 26.7013 12.9154C26.7635 13.2303 26.8878 13.5301 27.066 13.7967C27.1365 13.9003 27.2221 14.0039 27.5026 14.3327L27.5937 14.4405C28.1726 15.1174 28.5884 15.6064 28.8439 16.1396C29.4311 17.3691 29.4311 18.7975 28.8439 20.0256C28.5898 20.5602 28.1726 21.0479 27.5937 21.7262L27.5026 21.8339C27.3477 22.0053 27.202 22.1846 27.066 22.3713C26.8864 22.6379 26.7635 22.9377 26.7013 23.2513C26.6765 23.3756 26.6654 23.5096 26.6309 23.9406L26.6184 24.0801C26.5494 24.967 26.4983 25.608 26.3007 26.1661C26.0771 26.8004 25.7142 27.3766 25.2387 27.8523C24.7632 28.328 24.1872 28.6912 23.553 28.9152C22.9949 29.1113 22.354 29.1611 21.4671 29.2329L21.3275 29.244C21.0967 29.2553 20.8666 29.2788 20.6382 29.3144C20.3237 29.3766 20.0246 29.5005 19.7582 29.6791C19.5712 29.8152 19.3914 29.9609 19.2195 30.1156L19.1131 30.2068C18.4362 30.7856 17.9472 31.2014 17.4139 31.457C16.8073 31.747 16.1434 31.8976 15.4709 31.8976C14.7985 31.8976 14.1346 31.747 13.528 31.457C12.9933 31.2028 12.5057 30.7856 11.8274 30.2068C11.7915 30.1764 11.7556 30.146 11.7197 30.1156C11.5487 29.9609 11.3698 29.8152 11.1837 29.6791C10.9171 29.5001 10.6174 29.3761 10.3023 29.3144C10.0739 29.2788 9.84382 29.2553 9.61296 29.244L9.47344 29.2315C8.58655 29.1624 7.94557 29.1113 7.38747 28.9138C6.75319 28.6901 6.17706 28.3271 5.70136 27.8517C5.22566 27.3762 4.86245 26.8003 4.63841 26.1661C4.44224 25.608 4.39113 24.967 4.32068 24.0801L4.30962 23.9406C4.29827 23.7098 4.27475 23.4797 4.23917 23.2513C4.17696 22.9367 4.053 22.6376 3.87447 22.3713C3.73858 22.1841 3.59286 22.0043 3.43794 21.8325L3.34676 21.7262C2.76932 21.0493 2.35213 20.5602 2.09656 20.027C1.80654 19.4203 1.65601 18.7564 1.65601 18.084C1.65601 17.4116 1.80654 16.7477 2.09656 16.141C2.35213 15.6064 2.76932 15.1188 3.34676 14.4405L3.43794 14.3327C3.59275 14.1618 3.73846 13.9829 3.87447 13.7967C4.05406 13.5301 4.17701 13.2303 4.23917 12.9154C4.26404 12.791 4.27647 12.657 4.30962 12.226L4.32068 12.0865C4.39113 11.1996 4.44224 10.5586 4.63841 10.0005C4.86228 9.36612 5.2254 8.7899 5.70112 8.31419C6.17683 7.83848 6.75305 7.47535 7.38747 7.25148C7.94557 7.05532 8.58655 7.0042 9.47344 6.93375L9.61296 6.9227C9.84388 6.91213 10.074 6.88861 10.3023 6.85224C10.6173 6.79008 10.917 6.66575 11.1837 6.48755C11.2873 6.41709 11.3909 6.33144 11.7197 6.05101L11.8274 5.95984C12.5043 5.3824 12.9947 4.9652 13.528 4.70964ZM16.516 6.58563C16.1895 6.42962 15.8321 6.34864 15.4703 6.34864C15.1084 6.34864 14.751 6.42962 14.4245 6.58563C14.1689 6.70719 13.8996 6.92684 13.0693 7.63276L13.0279 7.66729C12.7557 7.89937 12.5582 8.06929 12.3413 8.21434C11.8454 8.54589 11.29 8.77659 10.7043 8.89125C10.4487 8.94236 10.189 8.96308 9.83123 8.99209L9.77873 8.99623C8.69154 9.08327 8.34756 9.11918 8.07957 9.21312C7.38885 9.45763 6.84456 10.0005 6.60143 10.6926C6.50473 10.9606 6.47019 11.3046 6.38316 12.3918L6.37902 12.4443C6.35139 12.8021 6.32929 13.0618 6.27955 13.3174C6.16351 13.9031 5.93419 14.4584 5.60265 14.9544C5.45622 15.1713 5.2863 15.3688 5.05422 15.6423L5.01968 15.6824C4.31377 16.5113 4.09412 16.782 3.97255 17.0362C3.81633 17.3629 3.73524 17.7205 3.73524 18.0826C3.73524 18.4448 3.81633 18.8023 3.97255 19.1291C4.09412 19.3846 4.31377 19.654 5.01968 20.4843L5.05422 20.5257C5.2863 20.7978 5.45622 20.9954 5.60127 21.2123C5.93281 21.7082 6.16351 22.2636 6.27817 22.8479C6.32929 23.1048 6.35001 23.3646 6.37902 23.7224L6.38316 23.7748C6.47019 24.862 6.50611 25.206 6.60005 25.474C6.84456 26.1647 7.38747 26.709 8.07957 26.9522C8.34756 27.0488 8.69154 27.0834 9.77873 27.1704L9.83123 27.1746C10.189 27.2022 10.4487 27.2243 10.7043 27.274C11.29 27.3901 11.8454 27.6194 12.3413 27.9509C12.5582 28.0974 12.7557 28.2673 13.0293 28.4994L13.0693 28.5339C13.8982 29.2398 14.1689 29.4595 14.4231 29.581C14.7498 29.7372 15.1074 29.8183 15.4696 29.8183C15.8317 29.8183 16.1893 29.7372 16.516 29.581C16.7716 29.4595 17.0409 29.2398 17.8712 28.5339L17.9126 28.4994C18.1848 28.2673 18.3823 28.0974 18.5992 27.9523C19.0943 27.6207 19.6502 27.3906 20.2348 27.2754C20.5241 27.225 20.8161 27.1913 21.1093 27.1746L21.1618 27.1704C22.249 27.0834 22.5929 27.0475 22.8609 26.9535C23.5517 26.709 24.0959 26.1661 24.3391 25.474C24.4358 25.206 24.4703 24.8607 24.5573 23.7748L24.5615 23.7224C24.5778 23.4292 24.611 23.1372 24.6609 22.8479C24.777 22.2636 25.0063 21.7082 25.3379 21.2123C25.4843 20.9954 25.6542 20.7978 25.8863 20.5243L25.9208 20.4843C26.6267 19.6554 26.8464 19.3846 26.9679 19.1305C27.1242 18.8037 27.2053 18.4462 27.2053 18.084C27.2053 17.7219 27.1242 17.3643 26.9679 17.0376C26.8464 16.782 26.6267 16.5126 25.9208 15.6824L25.8863 15.6409C25.6542 15.3688 25.4843 15.1713 25.3392 14.9544C25.0075 14.4589 24.7774 13.9024 24.6623 13.3174C24.612 13.0285 24.5783 12.737 24.5615 12.4443L24.5573 12.3918C24.4703 11.3046 24.4344 10.9606 24.3405 10.6926C24.0959 10.0019 23.553 9.45763 22.8609 9.2145C22.5929 9.1178 22.2476 9.08327 21.1618 8.99623L21.1093 8.99209C20.8161 8.97565 20.5242 8.94244 20.2348 8.89263C19.6502 8.77735 19.0943 8.54728 18.5992 8.21572C18.3823 8.06929 18.1848 7.89937 17.9113 7.66729L17.8712 7.63276C17.0423 6.92684 16.7716 6.70719 16.5174 6.58563H16.516Z" fill="#0D2B3D"/>
<path fill-rule="evenodd" clip-rule="evenodd" d="M20.3647 13.1889C20.4613 13.2855 20.5379 13.4002 20.5902 13.5264C20.6425 13.6526 20.6694 13.7879 20.6694 13.9245C20.6694 14.0612 20.6425 14.1964 20.5902 14.3227C20.5379 14.4489 20.4613 14.5636 20.3647 14.6601L12.0471 22.9764C11.8504 23.1627 11.5888 23.265 11.3178 23.2614C11.0469 23.2578 10.7881 23.1486 10.5965 22.9571C10.4048 22.7656 10.2954 22.5069 10.2915 22.236C10.2877 21.9651 10.3897 21.7034 10.5758 21.5065L18.8935 13.1903C18.9901 13.0937 19.1047 13.017 19.231 12.9648C19.3572 12.9125 19.4925 12.8856 19.6291 12.8856C19.7657 12.8856 19.901 12.9125 20.0272 12.9648C20.1534 13.017 20.2681 13.0937 20.3647 13.1903V13.1889Z" fill="#0D2B3D"/>
<path d="M20.3219 21.5494C20.3277 21.7351 20.2962 21.9202 20.2292 22.0935C20.1622 22.2668 20.061 22.4249 19.9317 22.5583C19.8024 22.6918 19.6476 22.7979 19.4765 22.8703C19.3054 22.9428 19.1214 22.9801 18.9356 22.9801C18.7498 22.9801 18.5659 22.9428 18.3947 22.8703C18.2236 22.7979 18.0688 22.6918 17.9395 22.5583C17.8102 22.4249 17.7091 22.2668 17.642 22.0935C17.575 21.9202 17.5435 21.7351 17.5493 21.5494C17.5607 21.1893 17.7117 20.8478 17.9705 20.5971C18.2292 20.3464 18.5753 20.2062 18.9356 20.2062C19.2959 20.2062 19.642 20.3464 19.9007 20.5971C20.1595 20.8478 20.3105 21.1893 20.3219 21.5494ZM13.3912 14.6174C13.3971 14.8031 13.3656 14.9881 13.2985 15.1614C13.2315 15.3347 13.1303 15.4928 13.001 15.6263C12.8717 15.7597 12.7169 15.8658 12.5458 15.9383C12.3747 16.0108 12.1908 16.0481 12.0049 16.0481C11.8191 16.0481 11.6352 16.0108 11.4641 15.9383C11.293 15.8658 11.1382 15.7597 11.0089 15.6263C10.8796 15.4928 10.7784 15.3347 10.7114 15.1614C10.6443 14.9881 10.6128 14.8031 10.6187 14.6174C10.63 14.2573 10.7811 13.9157 11.0398 13.665C11.2985 13.4144 11.6447 13.2742 12.0049 13.2742C12.3652 13.2742 12.7113 13.4144 12.9701 13.665C13.2288 13.9157 13.3798 14.2573 13.3912 14.6174Z" fill="#0D2B3D"/>
</svg>
