<svg width="41" height="42" viewBox="0 0 41 42" fill="none" xmlns="http://www.w3.org/2000/svg">
<path d="M13.2961 31.5425C12.956 31.5425 12.6706 31.4272 12.4401 31.1967C12.2096 30.9662 12.0947 30.6812 12.0955 30.3418V29.1412H9.6942C9.03385 29.1412 8.46834 28.9059 7.99769 28.4352C7.52704 27.9646 7.29211 27.3995 7.29291 26.7399V13.5328C7.29291 12.8724 7.52824 12.3069 7.99889 11.8363C8.46954 11.3656 9.03465 11.1307 9.6942 11.1315H31.3058C31.9662 11.1315 32.5317 11.3668 33.0023 11.8375C33.473 12.3081 33.7079 12.8732 33.7071 13.5328V26.7399C33.7071 27.4002 33.4718 27.9658 33.0011 28.4364C32.5305 28.9071 31.9654 29.142 31.3058 29.1412H28.9045V30.3418C28.9045 30.682 28.7893 30.9674 28.5587 31.1979C28.3282 31.4284 28.0433 31.5433 27.7039 31.5425H13.2961ZM9.6942 26.7399H31.3058V13.5328H9.6942V26.7399ZM12.3465 24.0158C12.2444 24.1472 12.338 24.3386 12.5044 24.3386H28.5045C28.6693 24.3386 28.7634 24.1505 28.6645 24.0186L23.6587 17.3442C23.5796 17.2387 23.4218 17.2373 23.3409 17.3414L19.4519 22.3416C19.3735 22.4423 19.2221 22.4449 19.1403 22.3468L16.4568 19.1265C16.375 19.0285 16.2236 19.031 16.1453 19.1318L12.3465 24.0158Z" fill="#0D2B3D"/>
</svg>
