<svg width="13" height="16" viewBox="0 0 13 16" fill="none" xmlns="http://www.w3.org/2000/svg">
<path d="M6.03711 0.648926C3.97236 0.648926 2.28711 2.33418 2.28711 4.39893C2.28711 6.46368 3.97236 8.14893 6.03711 8.14893C8.10111 8.14893 9.78711 6.46368 9.78711 4.39893C9.78711 2.33418 8.10111 0.648926 6.03711 0.648926ZM6.03711 1.77393C7.49361 1.77393 8.66211 2.94243 8.66211 4.39893C8.66211 5.85543 7.49361 7.02393 6.03711 7.02393C5.69208 7.02502 5.35025 6.95786 5.03128 6.82633C4.71231 6.6948 4.4225 6.50148 4.17852 6.25751C3.93455 6.01354 3.74124 5.72373 3.60971 5.40476C3.47817 5.08579 3.41102 4.74395 3.41211 4.39893C3.41211 2.94243 4.58061 1.77393 6.03711 1.77393ZM1.72461 9.64893C1.27772 9.65109 0.849762 9.82958 0.533763 10.1456C0.217764 10.4616 0.0392783 10.8895 0.0371094 11.3364L0.0371094 11.7864C0.0371094 12.8889 0.736109 13.8782 1.80261 14.5584C2.86986 15.2387 4.32861 15.6489 6.03711 15.6489C7.74561 15.6489 9.20436 15.2387 10.2716 14.5584C11.3381 13.8782 12.0371 12.8889 12.0371 11.7864V11.3364C12.0349 10.8895 11.8565 10.4616 11.5405 10.1456C11.2245 9.82958 10.7965 9.65109 10.3496 9.64893H1.72461ZM1.72461 10.7739H10.3496C10.6669 10.7739 10.9121 11.0192 10.9121 11.3364V11.7864C10.9121 12.4104 10.5101 13.0719 9.66636 13.6097C8.82261 14.1489 7.56261 14.5239 6.03711 14.5239C4.51161 14.5239 3.25161 14.1482 2.40786 13.6097C1.56411 13.0719 1.16211 12.4104 1.16211 11.7864V11.3364C1.16211 11.0192 1.40736 10.7739 1.72461 10.7739Z" fill="#232D40"/>
</svg>
