<svg width="28" height="28" viewBox="0 0 28 28" fill="none" xmlns="http://www.w3.org/2000/svg">
<circle cx="14" cy="14" r="13.3333" stroke="#FF003D" stroke-width="1.33333"/>
<path d="M14.4413 11.0133C14.1657 11.0133 13.9346 10.9199 13.748 10.7333C13.5613 10.5466 13.468 10.3155 13.468 10.0399C13.468 9.76436 13.5613 9.53325 13.748 9.34658C13.9346 9.15992 14.1657 9.06658 14.4413 9.06658C14.708 9.06658 14.9346 9.15992 15.1213 9.34658C15.308 9.53325 15.4013 9.76436 15.4013 10.0399C15.4013 10.3155 15.308 10.5466 15.1213 10.7333C14.9346 10.9199 14.708 11.0133 14.4413 11.0133ZM15.188 11.9866V19.3333H13.668V11.9866H15.188Z" fill="#FF003D"/>
</svg>
