<svg width="18" height="10" viewBox="0 0 18 10" fill="none" xmlns="http://www.w3.org/2000/svg">
<g clip-path="url(#clip0_52_2216)">
<path d="M14.9687 7.82373C14.9702 8.03069 14.9099 8.23339 14.7957 8.40597C14.6815 8.57856 14.5184 8.71321 14.3274 8.79275C14.1363 8.87229 13.9259 8.89312 13.7229 8.85257C13.52 8.81203 13.3337 8.71195 13.1878 8.56511L8.71822 4.08536L4.25085 8.56398C4.15437 8.66405 4.03892 8.74388 3.91124 8.79883C3.78356 8.85377 3.64621 8.88272 3.50721 8.88399C3.36822 8.88526 3.23036 8.85881 3.1017 8.80621C2.97304 8.7536 2.85615 8.67588 2.75786 8.57759C2.65958 8.47931 2.58186 8.36242 2.52925 8.23376C2.47664 8.10509 2.4502 7.96724 2.45147 7.82825C2.45273 7.68925 2.48169 7.5519 2.53663 7.42422C2.59157 7.29654 2.67141 7.18109 2.77147 7.08461L8.71935 1.14798L14.6661 7.08461C14.7628 7.18198 14.8393 7.2975 14.8913 7.42454C14.9432 7.55157 14.9695 7.68762 14.9687 7.82486V7.82373Z" fill="#28402A"/>
</g>
<defs>
<clipPath id="clip0_52_2216">
<rect width="17" height="9" fill="white" transform="matrix(-1 0 0 -1 17.5 9.5)"/>
</clipPath>
</defs>
</svg>
