<svg width="45" height="46" viewBox="0 0 45 46" fill="none" xmlns="http://www.w3.org/2000/svg">
<path fill-rule="evenodd" clip-rule="evenodd" d="M4.96935 35.3319C4.37573 35.3319 3.89453 34.8507 3.89453 34.2571V12.1221C3.89453 11.5375 4.37573 11.0608 4.96935 11.0608H31.2597L35.6625 6.65804C35.8199 6.50064 35.9503 6.45117 36.1976 6.45117C36.5394 6.45117 36.7418 6.54112 36.7733 6.58609C37.169 6.99533 37.169 7.48552 36.8317 7.8228L21.4964 23.2391L27.7924 29.5216C27.9588 29.6835 28.0488 29.8949 28.0488 30.1107C28.0488 30.3266 27.9588 30.5379 27.7924 30.6998C27.635 30.8572 27.5046 30.9067 27.2438 30.9067C27.0414 30.9067 26.7941 30.7853 26.7086 30.6998L20.4126 24.4038L18.11 26.7109L15.803 24.4038L9.52047 30.6998C9.36307 30.8572 9.23266 30.9067 8.98531 30.9067C8.75146 30.9067 8.51311 30.7718 8.42317 30.6864C8.09488 30.3581 8.09488 29.8634 8.43666 29.5216L14.6337 23.2391L8.36021 16.9565C8.19381 16.7901 8.10387 16.5878 8.10387 16.3719C8.10387 16.1605 8.19381 15.9537 8.36021 15.7873C8.5266 15.6209 8.65702 15.5669 8.89537 15.5669C9.10674 15.5669 9.33609 15.6793 9.44402 15.7873L17.9437 24.3768L29.4789 12.7337H5.56747V33.7399H30.4817V18.9308L32.1547 17.2578V34.2616C32.1547 34.5584 32.0467 34.8237 31.8444 35.0126C31.633 35.233 31.3812 35.3409 31.0933 35.3409H4.96935V35.3319Z" fill="#28402A"/>
</svg>
