<svg width="19" height="16" viewBox="0 0 19 16" fill="none" xmlns="http://www.w3.org/2000/svg">
<path d="M0.822266 0.5C0.656505 0.5 0.497534 0.565848 0.380324 0.683058C0.263114 0.800268 0.197266 0.95924 0.197266 1.125C0.197266 1.29076 0.263114 1.44973 0.380324 1.56694C0.497534 1.68415 0.656505 1.75 0.822266 1.75H1.9706C2.27393 1.75 2.52643 1.95917 2.58393 2.25833L2.70893 2.90833L4.05227 9.965C4.17155 10.5837 4.50222 11.1416 4.98765 11.5433C5.47307 11.9449 6.08305 12.1653 6.7131 12.1667H14.5148C15.1449 12.1655 15.7549 11.9451 16.2404 11.5434C16.7258 11.1418 17.0565 10.5837 17.1756 9.965L18.5189 2.90917C18.5359 2.81885 18.5328 2.72591 18.5099 2.63692C18.487 2.54793 18.4447 2.46508 18.3862 2.39423C18.3277 2.32338 18.2543 2.26627 18.1712 2.22694C18.0882 2.18762 17.9975 2.16704 17.9056 2.16667H3.83893L3.81227 2.025C3.7296 1.59676 3.50073 1.21053 3.1648 0.932365C2.82887 0.654198 2.40675 0.501365 1.9706 0.5L0.822266 0.5ZM4.07727 3.41667H17.1506L15.9473 9.73167C15.8848 10.0657 15.7072 10.3673 15.4453 10.5838C15.1834 10.8004 14.8538 10.9182 14.5139 10.9167H6.71393C6.00893 10.9167 5.41227 10.4233 5.2806 9.73167L4.07727 3.41667ZM7.69727 13C7.36575 13 7.0478 13.1317 6.81338 13.3661C6.57896 13.6005 6.44727 13.9185 6.44727 14.25C6.44727 14.5815 6.57896 14.8995 6.81338 15.1339C7.0478 15.3683 7.36575 15.5 7.69727 15.5C8.02879 15.5 8.34673 15.3683 8.58115 15.1339C8.81557 14.8995 8.94727 14.5815 8.94727 14.25C8.94727 13.9185 8.81557 13.6005 8.58115 13.3661C8.34673 13.1317 8.02879 13 7.69727 13ZM13.5306 13C13.1991 13 12.8811 13.1317 12.6467 13.3661C12.4123 13.6005 12.2806 13.9185 12.2806 14.25C12.2806 14.5815 12.4123 14.8995 12.6467 15.1339C12.8811 15.3683 13.1991 15.5 13.5306 15.5C13.8621 15.5 14.1801 15.3683 14.4145 15.1339C14.6489 14.8995 14.7806 14.5815 14.7806 14.25C14.7806 13.9185 14.6489 13.6005 14.4145 13.3661C14.1801 13.1317 13.8621 13 13.5306 13Z" fill="#232D40"/>
<path d="M4.07727 3.41667H17.1506L15.9473 9.73167C15.8848 10.0657 15.7072 10.3673 15.4453 10.5838C15.1834 10.8004 14.8538 10.9182 14.5139 10.9167H6.71393C6.00893 10.9167 5.41227 10.4233 5.2806 9.73167L4.07727 3.41667Z" fill="white"/>
</svg>
