<svg width="81" height="80" viewBox="0 0 81 80" fill="none" xmlns="http://www.w3.org/2000/svg">
<circle cx="40.832" cy="40" r="40" fill="#F4CD17"/>
<path d="M20.8892 26.7434C20.5301 26.7434 20.1857 26.8861 19.9317 27.14C19.6778 27.3939 19.5352 27.7383 19.5352 28.0974C19.5352 28.4565 19.6778 28.8009 19.9317 29.0549C20.1857 29.3088 20.5301 29.4514 20.8892 29.4514H23.3769C24.0341 29.4514 24.5811 29.9046 24.7057 30.5527L24.9765 31.9609L27.8867 47.2486C28.1451 48.5889 28.8615 49.7976 29.9131 50.6678C30.9648 51.5379 32.2863 52.0154 33.6512 52.0183H50.5529C51.918 52.0157 53.2396 51.5384 54.2913 50.6682C55.343 49.798 56.0593 48.589 56.3174 47.2486L59.2276 31.9627C59.2644 31.767 59.2578 31.5657 59.2081 31.3729C59.1584 31.1801 59.0669 31.0006 58.9401 30.8471C58.8133 30.6936 58.6543 30.5699 58.4744 30.4847C58.2945 30.3995 58.098 30.3549 57.8989 30.3541H27.4245L27.3668 30.0472C27.1877 29.1195 26.6919 28.2827 25.9641 27.6801C25.2363 27.0775 24.3218 26.7464 23.3769 26.7434H20.8892ZM27.9409 33.0621H56.2633L53.6563 46.7431C53.5211 47.4668 53.1362 48.1201 52.5688 48.5893C52.0014 49.0584 51.2873 49.3135 50.5511 49.3103H33.653C32.1257 49.3103 30.8331 48.2416 30.5478 46.7431L27.9409 33.0621ZM35.7833 53.8237C35.0651 53.8237 34.3763 54.109 33.8685 54.6169C33.3606 55.1247 33.0753 55.8135 33.0753 56.5317C33.0753 57.2499 33.3606 57.9387 33.8685 58.4466C34.3763 58.9544 35.0651 59.2398 35.7833 59.2398C36.5015 59.2398 37.1903 58.9544 37.6982 58.4466C38.2061 57.9387 38.4914 57.2499 38.4914 56.5317C38.4914 55.8135 38.2061 55.1247 37.6982 54.6169C37.1903 54.109 36.5015 53.8237 35.7833 53.8237ZM48.4208 53.8237C47.7026 53.8237 47.0138 54.109 46.5059 54.6169C45.9981 55.1247 45.7128 55.8135 45.7128 56.5317C45.7128 57.2499 45.9981 57.9387 46.5059 58.4466C47.0138 58.9544 47.7026 59.2398 48.4208 59.2398C49.139 59.2398 49.8278 58.9544 50.3357 58.4466C50.8435 57.9387 51.1288 57.2499 51.1288 56.5317C51.1288 55.8135 50.8435 55.1247 50.3357 54.6169C49.8278 54.109 49.139 53.8237 48.4208 53.8237Z" fill="#0D2B3D"/>
<path d="M27.9409 33.0621H56.2633L53.6563 46.7431C53.5211 47.4668 53.1362 48.1201 52.5688 48.5893C52.0014 49.0584 51.2873 49.3135 50.5511 49.3103H33.653C32.1257 49.3103 30.8331 48.2416 30.5478 46.7431L27.9409 33.0621Z" fill="#0D2B3D"/>
</svg>
