<svg width="45" height="43" viewBox="0 0 45 43" fill="none" xmlns="http://www.w3.org/2000/svg">
<g clip-path="url(#clip0_43_4275)">
<path fill-rule="evenodd" clip-rule="evenodd" d="M22.0029 9.98246L25.2798 12.8541V12.8533L25.2805 8.98505L22.0029 9.98246Z" fill="#2D2D2D"/>
<path d="M25.2799 12.8877C25.2721 12.8877 25.2644 12.885 25.2582 12.8795L21.9812 10.0079C21.972 9.99982 21.9679 9.98735 21.9705 9.97534C21.973 9.96341 21.982 9.95371 21.9936 9.95014L25.2712 8.95276C25.2816 8.94966 25.2927 8.95151 25.3012 8.95798C25.3099 8.96432 25.3149 8.9744 25.3149 8.98509L25.3142 12.8533C25.3142 12.8666 25.3064 12.879 25.2944 12.8845L25.2799 12.8877ZM22.0714 9.99712L25.2467 12.7797L25.2473 9.03067L22.0714 9.99712Z" fill="#F7F7F7"/>
<path d="M10.3141 42.2485C9.04288 42.2485 8.00977 41.2153 8.00977 39.9441V2.55745C8.00977 1.28691 9.04288 0.253113 10.3141 0.253113H34.6556C35.9268 0.253113 36.96 1.28691 36.96 2.55745V24.5684H34.9166V2.35096L34.6556 2.29783H10.1069L10.0531 2.55745V40.1513L10.3141 40.2051H34.8628L34.9166 39.9441V32.1123H36.96V39.9441C36.96 41.2153 35.9268 42.2484 34.6556 42.2484L10.3141 42.2485Z" fill="#B47F68"/>
<path fill-rule="evenodd" clip-rule="evenodd" d="M20.8672 24.4553H25.2794L20.8672 28.4746H20.8672V24.4553Z" fill="#2D2D2D"/>
<path d="M20.8668 28.5085L20.8532 28.5056C20.8409 28.5002 20.833 28.488 20.833 28.4747V24.4554C20.833 24.4368 20.8482 24.4216 20.8668 24.4216H25.279C25.293 24.4216 25.3055 24.4302 25.3105 24.4433C25.3155 24.4562 25.3121 24.471 25.3017 24.4803L20.8895 28.4997C20.8831 28.5055 20.8751 28.5085 20.8668 28.5085ZM20.9006 24.4892V28.3983L25.1918 24.4892H20.9006Z" fill="#F7F7F7"/>
<path fill-rule="evenodd" clip-rule="evenodd" d="M25.2797 32.1625L25.2791 32.1617L20.8657 28.4745L16.7295 32.1625H25.2797Z" fill="#2D2D2D"/>
<path d="M25.2803 32.1969H16.7301C16.7161 32.1969 16.7035 32.1882 16.6985 32.1751C16.6935 32.162 16.6971 32.1472 16.7076 32.1379L20.8438 28.4498C20.8564 28.4388 20.8752 28.4384 20.8879 28.4492L25.3013 32.1363L25.3071 32.1425C25.3145 32.1528 25.3158 32.1668 25.31 32.1781C25.3042 32.1893 25.293 32.1969 25.2803 32.1969ZM16.8187 32.1293H25.1877L20.8669 28.5196L16.8187 32.1293Z" fill="#F7F7F7"/>
<path fill-rule="evenodd" clip-rule="evenodd" d="M16.7295 32.1625L20.8657 28.4746L20.8656 28.4745H16.7295V32.1625Z" fill="#2D2D2D"/>
<path d="M16.7301 32.1969L16.7162 32.194C16.7041 32.1884 16.6963 32.1764 16.6963 32.1631V28.4751C16.6963 28.4565 16.7115 28.4413 16.7301 28.4413H20.8661C20.8751 28.4413 20.8837 28.4448 20.89 28.4512C20.8966 28.4578 20.9002 28.4667 20.8999 28.4761C20.8997 28.4853 20.8957 28.4942 20.8887 28.5004L16.7525 32.1883C16.7463 32.194 16.7382 32.1969 16.7301 32.1969ZM16.7638 28.5088V32.0878L20.7777 28.5088H16.7638Z" fill="#F7F7F7"/>
<path fill-rule="evenodd" clip-rule="evenodd" d="M20.8665 16.7217L20.8675 16.72L20.8665 16.719V16.7217ZM19.1516 15.0386L16.9219 12.8538V15.6881L19.1516 15.0386Z" fill="#2D2D2D"/>
<path d="M20.8672 16.7551C20.8486 16.7551 20.8325 16.74 20.8325 16.7214V16.7186C20.8325 16.7045 20.8412 16.6919 20.8544 16.6869C20.8672 16.6818 20.8823 16.6857 20.8917 16.6963C20.897 16.7025 20.9009 16.7115 20.9009 16.7197C20.9009 16.7383 20.8858 16.7551 20.8672 16.7551ZM16.9215 15.7215C16.9142 15.7215 16.9071 15.7191 16.9011 15.7147C16.8927 15.7083 16.8877 15.6984 16.8877 15.6877V12.8534C16.8877 12.8398 16.8959 12.8275 16.9084 12.8222C16.9211 12.8168 16.9353 12.8198 16.9451 12.8292L19.1748 15.0141C19.1834 15.0225 19.1868 15.0348 19.1839 15.0464C19.181 15.0582 19.1721 15.0673 19.1607 15.0707L16.931 15.7202L16.9215 15.7215ZM16.9552 12.9338V15.6427L19.0863 15.022L16.9552 12.9338Z" fill="#F7F7F7"/>
<path fill-rule="evenodd" clip-rule="evenodd" d="M21.0017 10.287L20.8683 16.7206L20.8665 16.7189V14.5388L19.1514 15.0383L16.9219 12.8536V11.5286L21.0017 10.287Z" fill="#2D2D2D"/>
<path d="M20.868 16.755C20.8591 16.755 20.8505 16.7515 20.8441 16.7451C20.8377 16.7387 20.8325 16.7285 20.8325 16.7195V14.5844L19.1605 15.0713C19.1487 15.0745 19.136 15.0714 19.1274 15.063L16.8979 12.8783C16.8914 12.8719 16.8877 12.8633 16.8877 12.8542V11.5292C16.8877 11.5143 16.8975 11.5012 16.9116 11.4969L20.9914 10.2553C21.0021 10.2521 21.0132 10.2542 21.0218 10.2607C21.0304 10.2672 21.0354 10.2775 21.0351 10.2883L20.9017 16.7219C20.9015 16.7355 20.8931 16.7475 20.8806 16.7526L20.868 16.755ZM16.9552 12.84L19.1605 15.0009L20.8567 14.5069C20.8647 14.5045 20.8727 14.5053 20.8801 14.5085L20.9666 10.3334L16.9552 11.5542V12.84Z" fill="#F7F7F7"/>
<path fill-rule="evenodd" clip-rule="evenodd" d="M25.2806 24.4553H25.2813V28.4746V32.1626H25.2812L20.8672 28.4747L25.2806 24.4553Z" fill="#2D2D2D"/>
<path d="M25.281 32.1966C25.2732 32.1966 25.2655 32.1939 25.2593 32.1886L20.8452 28.5007C20.8376 28.4945 20.8333 28.4853 20.833 28.4755C20.8328 28.4659 20.8368 28.4565 20.8441 28.4499L25.2575 24.4305C25.2637 24.4248 25.2717 24.4216 25.2802 24.4216C25.2988 24.4216 25.3147 24.4368 25.3147 24.4554V32.1628C25.3147 32.1758 25.3071 32.1878 25.2952 32.1934L25.281 32.1966ZM20.9181 28.4738L25.2471 32.0906L25.2472 24.5311L20.9181 28.4738Z" fill="#F7F7F7"/>
<path fill-rule="evenodd" clip-rule="evenodd" d="M20.8672 16.7199H25.2813V20.5863H25.2809L20.8672 16.7199Z" fill="#2D2D2D"/>
<path d="M25.2808 20.6202C25.2727 20.6202 25.2644 20.6171 25.2581 20.6119L20.8445 16.7454C20.8339 16.7361 20.8303 16.7213 20.8351 16.7081C20.8401 16.6949 20.8527 16.6862 20.8668 16.6862H25.2808C25.2994 16.6862 25.3146 16.7014 25.3146 16.72V20.5864C25.3146 20.605 25.2994 20.6202 25.2808 20.6202ZM20.9566 16.7538L25.2471 20.5123V16.7538H20.9566Z" fill="#F7F7F7"/>
<path fill-rule="evenodd" clip-rule="evenodd" d="M20.8672 24.455V24.4557H25.2813V20.5866L20.8672 24.455Z" fill="#2D2D2D"/>
<path d="M25.2808 24.4891H20.8668C20.8482 24.4891 20.833 24.4739 20.833 24.4553C20.833 24.4455 20.8372 24.4356 20.8445 24.4292L25.2585 20.5608C25.2686 20.5522 25.2827 20.5497 25.2948 20.5555C25.3068 20.5609 25.3146 20.5731 25.3146 20.5862V24.4553C25.3146 24.4739 25.2994 24.4891 25.2808 24.4891ZM20.9558 24.4215H25.2471V20.6608L20.9558 24.4215Z" fill="#F7F7F7"/>
<path fill-rule="evenodd" clip-rule="evenodd" d="M20.8678 16.7199H20.8672V24.4545L25.2813 20.5861L20.8678 16.7199Z" fill="#2D2D2D"/>
<path d="M20.8668 24.4887L20.8528 24.4857C20.8408 24.4803 20.833 24.4681 20.833 24.4549V16.7204C20.833 16.6936 20.8692 16.6777 20.8896 16.6949L25.3031 20.5611C25.3104 20.5676 25.3146 20.5768 25.3146 20.5866C25.3146 20.5963 25.3104 20.6056 25.3031 20.612L20.8891 24.4804C20.8827 24.4858 20.8748 24.4887 20.8668 24.4887ZM20.9006 16.7944V24.3804L25.2296 20.5865L20.9006 16.7944Z" fill="#F7F7F7"/>
<path fill-rule="evenodd" clip-rule="evenodd" d="M25.2806 16.7203H20.8672L25.2806 12.8538V16.7203Z" fill="#2D2D2D"/>
<path d="M25.2803 16.7536H20.8668C20.8527 16.7536 20.8401 16.7449 20.8351 16.7317C20.8303 16.7185 20.8339 16.7037 20.8445 16.6944L25.258 12.8279C25.2681 12.8191 25.2822 12.8171 25.2943 12.8226C25.3063 12.828 25.3141 12.8401 25.3141 12.8533V16.7198C25.3141 16.7385 25.2989 16.7536 25.2803 16.7536ZM20.9566 16.6861H25.2466V12.9278L20.9566 16.6861Z" fill="#F7F7F7"/>
<path fill-rule="evenodd" clip-rule="evenodd" d="M20.8679 16.7203H20.8672V14.5393V10.3287L22.0045 9.98254L25.2813 12.8541V12.8542L20.8679 16.7203Z" fill="#2D2D2D"/>
<path d="M20.8674 16.7536C20.8488 16.7536 20.833 16.7385 20.833 16.7199V10.3282C20.833 10.3134 20.8428 10.3003 20.8569 10.2959L21.9942 9.94979C22.0056 9.94636 22.0175 9.94893 22.0264 9.95672L25.3031 12.8283C25.3104 12.8347 25.3146 12.844 25.3146 12.8537C25.3146 12.8634 25.3104 12.8727 25.3031 12.879L20.8897 16.7453C20.8835 16.7506 20.8756 16.7536 20.8674 16.7536ZM20.9006 10.3532V16.646L25.2296 12.8538L21.996 10.0199L20.9006 10.3532Z" fill="#F7F7F7"/>
<path fill-rule="evenodd" clip-rule="evenodd" d="M29.3076 28.4745L25.2812 32.1625H29.3077V28.4745H29.3076Z" fill="#2D2D2D"/>
<path d="M29.3063 32.1969H25.2799C25.2659 32.1969 25.2535 32.1883 25.2484 32.1754C25.2434 32.1623 25.2468 32.1477 25.2571 32.1381L29.2834 28.4501C29.2933 28.4411 29.3078 28.4387 29.3198 28.4442C29.3321 28.4496 29.34 28.4616 29.34 28.475L29.3401 32.1631C29.3401 32.172 29.3366 32.1806 29.3302 32.187C29.3239 32.1933 29.3153 32.1969 29.3063 32.1969ZM25.3667 32.1293H29.2726V28.5517L25.3667 32.1293Z" fill="#F7F7F7"/>
<path fill-rule="evenodd" clip-rule="evenodd" d="M25.2812 28.4745V32.1624L29.3077 28.4745H25.2812Z" fill="#2D2D2D"/>
<path d="M25.2799 32.1967L25.2663 32.1938C25.254 32.1884 25.2461 32.1764 25.2461 32.163V28.4751C25.2461 28.4565 25.2613 28.4413 25.2799 28.4413H29.3063C29.3203 28.4413 29.3327 28.4499 29.3378 28.4628C29.3429 28.4758 29.3394 28.4905 29.3291 28.5L25.3027 32.1879C25.2964 32.1937 25.2882 32.1967 25.2799 32.1967ZM25.3137 28.5088V32.0862L29.2194 28.5088H25.3137Z" fill="#F7F7F7"/>
</g>
<defs>
<clipPath id="clip0_43_4275">
<rect width="44.953" height="42.0709" fill="white" transform="translate(0.0078125 0.215088)"/>
</clipPath>
</defs>
</svg>
