<svg width="23" height="19" viewBox="0 0 23 19" fill="none" xmlns="http://www.w3.org/2000/svg">
<path d="M0.801758 0.78125C0.602845 0.78125 0.41208 0.860268 0.271428 1.00092C0.130775 1.14157 0.0517578 1.33234 0.0517578 1.53125C0.0517578 1.73016 0.130775 1.92093 0.271428 2.06158C0.41208 2.20223 0.602845 2.28125 0.801758 2.28125H2.17976C2.54376 2.28125 2.84676 2.53225 2.91576 2.89125L3.06576 3.67125L4.67776 12.1392C4.8209 12.8816 5.2177 13.5512 5.80021 14.0332C6.38272 14.5151 7.1147 14.7796 7.87076 14.7812H17.2328C17.9889 14.7798 18.7209 14.5154 19.3035 14.0334C19.886 13.5514 20.2828 12.8817 20.4258 12.1392L22.0378 3.67225C22.0581 3.56387 22.0544 3.45234 22.0269 3.34556C21.9994 3.23877 21.9487 3.13935 21.8785 3.05433C21.8083 2.96931 21.7202 2.90077 21.6205 2.85358C21.5209 2.80639 21.412 2.7817 21.3018 2.78125H4.42176L4.38976 2.61125C4.29056 2.09736 4.01592 1.63389 3.6128 1.30009C3.20969 0.966287 2.70313 0.782888 2.17976 0.78125L0.801758 0.78125ZM4.70776 4.28125H20.3958L18.9518 11.8593C18.8768 12.2601 18.6637 12.622 18.3494 12.8818C18.0351 13.1417 17.6396 13.283 17.2318 13.2812H7.87176C7.02576 13.2812 6.30976 12.6892 6.15176 11.8593L4.70776 4.28125ZM9.05176 15.7812C8.65393 15.7812 8.2724 15.9393 7.9911 16.2206C7.70979 16.5019 7.55176 16.8834 7.55176 17.2812C7.55176 17.6791 7.70979 18.0606 7.9911 18.3419C8.2724 18.6232 8.65393 18.7812 9.05176 18.7812C9.44958 18.7812 9.83111 18.6232 10.1124 18.3419C10.3937 18.0606 10.5518 17.6791 10.5518 17.2812C10.5518 16.8834 10.3937 16.5019 10.1124 16.2206C9.83111 15.9393 9.44958 15.7812 9.05176 15.7812ZM16.0518 15.7812C15.6539 15.7812 15.2724 15.9393 14.9911 16.2206C14.7098 16.5019 14.5518 16.8834 14.5518 17.2812C14.5518 17.6791 14.7098 18.0606 14.9911 18.3419C15.2724 18.6232 15.6539 18.7812 16.0518 18.7812C16.4496 18.7812 16.8311 18.6232 17.1124 18.3419C17.3937 18.0606 17.5518 17.6791 17.5518 17.2812C17.5518 16.8834 17.3937 16.5019 17.1124 16.2206C16.8311 15.9393 16.4496 15.7812 16.0518 15.7812Z" fill="#232D40"/>
<path d="M4.70776 4.28125H20.3958L18.9518 11.8593C18.8768 12.2601 18.6637 12.622 18.3494 12.8818C18.0351 13.1417 17.6396 13.283 17.2318 13.2812H7.87176C7.02576 13.2812 6.30976 12.6892 6.15176 11.8593L4.70776 4.28125Z" fill="white"/>
</svg>
