<svg width="37" height="36" viewBox="0 0 37 36" fill="none" xmlns="http://www.w3.org/2000/svg">
<g clip-path="url(#clip0_43_4319)">
<path d="M9.46627 16.3598C9.39171 16.3707 9.31597 16.3707 9.24141 16.3598C9.15115 16.3114 9.06794 16.2509 8.99407 16.1799L5.84606 14.7071L5.28391 14.426C5.09753 14.3497 4.91713 14.2595 4.74425 14.1562C4.64906 14.0692 4.57672 13.9601 4.53359 13.8385C4.49046 13.717 4.47786 13.5867 4.49691 13.4591C4.50024 13.3732 4.52452 13.2893 4.56762 13.2149C4.61073 13.1404 4.67136 13.0776 4.74425 13.0319C4.82412 12.9789 4.91824 12.9514 5.01408 12.9532C5.29716 12.9889 5.56932 13.0848 5.81233 13.2343H5.90227L6.34074 13.4479L6.58809 13.5603C6.82419 13.6615 7.04905 13.7739 7.2739 13.8976L7.66741 14.0887L9.01655 14.7408L9.3426 14.8982C9.52417 14.9739 9.69748 15.0681 9.85977 15.1793C9.96909 15.2723 10.044 15.3993 10.0726 15.54C10.1011 15.6806 10.0816 15.8268 10.0172 15.9551C9.97213 16.0548 9.8995 16.1395 9.80786 16.1993C9.71622 16.259 9.6094 16.2913 9.5 16.2923L9.46627 16.3598Z" fill="#28402A"/>
<path d="M7.34117 17.7428H7.17253C6.8178 17.6307 6.47801 17.4759 6.16067 17.2818L5.03638 16.7197C4.6766 16.5285 4.37305 16.3487 4.37305 16.0226C4.3743 15.879 4.42375 15.74 4.51345 15.6279C4.60316 15.5158 4.72792 15.437 4.86773 15.4043H4.94643C5.1809 15.3935 5.41285 15.4564 5.60976 15.5841L7.38614 16.4498C7.54825 16.5095 7.69444 16.6057 7.81337 16.7309C7.86221 16.8032 7.89629 16.8845 7.91368 16.97C7.93107 17.0555 7.93142 17.1436 7.91471 17.2292C7.898 17.3148 7.86456 17.3963 7.8163 17.469C7.76805 17.5417 7.70592 17.6042 7.63349 17.6528C7.58108 17.6895 7.52446 17.7197 7.46484 17.7428H7.30744H7.34117Z" fill="#28402A"/>
<path d="M18.371 35.0458L14.1099 33.0445L7.36418 29.8178L2.77708 27.5692C2.60139 27.4931 2.45502 27.3621 2.35979 27.196C2.26457 27.0299 2.22559 26.8374 2.24866 26.6473C2.24866 20.6773 2.24866 14.7523 2.24866 8.80484C2.23341 8.60864 2.28213 8.41277 2.38752 8.24657C2.49292 8.08038 2.64931 7.95279 2.83329 7.88292L17.9887 0.575045C18.1465 0.486027 18.3247 0.439537 18.5059 0.44013C18.6819 0.441185 18.8552 0.483546 19.0118 0.563802L34.1672 7.88292C34.3523 7.95242 34.51 8.07954 34.6173 8.24553C34.7246 8.41152 34.7757 8.6076 34.7631 8.80484C34.7631 14.7561 34.7631 20.6998 34.7631 26.6361C34.7748 26.8317 34.7246 27.026 34.6197 27.1914C34.5147 27.3569 34.3604 27.4852 34.1785 27.558L22.4859 33.1794L18.6745 35.012H18.6071L18.371 35.0458ZM22.2947 13.6843C22.4059 13.684 22.515 13.7142 22.6102 13.7717C22.7054 13.8292 22.7829 13.9117 22.8344 14.0103C22.9084 14.1559 22.924 14.3243 22.878 14.481C22.832 14.6377 22.728 14.771 22.5871 14.8535L22.3622 14.9772L20.9793 15.6405C20.4509 15.8991 19.9337 16.1577 19.3941 16.3938C19.3121 16.4193 19.2415 16.4725 19.1944 16.5443C19.1472 16.616 19.1264 16.7019 19.1355 16.7873C19.113 20.6773 19.113 32.1451 19.113 33.3706L19.2704 33.3144L33.2116 26.5686C33.2915 26.541 33.3595 26.4869 33.4045 26.4154C33.4495 26.3438 33.4687 26.2591 33.4589 26.1751V9.56936L32.0423 10.2552C31.0979 10.7161 30.1985 11.1546 29.2878 11.5818C29.2204 11.6026 29.1628 11.6471 29.1256 11.707C29.0884 11.7669 29.0742 11.8383 29.0854 11.9079V14.4038C29.0854 15.4157 29.0854 16.4388 29.0854 17.4619C29.101 17.6523 29.0546 17.8427 28.9534 18.0047C28.8521 18.1667 28.7013 18.2918 28.5233 18.3613L26.2747 19.4856L25.2066 20.0028C25.0364 20.0941 24.8485 20.1477 24.6557 20.1602C24.3859 20.1602 24.0824 20.014 24.0824 19.3057V13.7967C24.0924 13.7214 24.0768 13.645 24.0381 13.5797C23.9993 13.5144 23.9396 13.4641 23.8687 13.4369L20.9568 12.0428L9.26422 6.42135C9.18658 6.40314 9.10577 6.40314 9.02812 6.42135C7.87011 6.90479 6.74582 7.44445 5.52034 8.0066L4.39605 8.56874L14.7395 13.5606L15.088 13.7405C15.2236 13.8166 15.3255 13.9411 15.3734 14.089C15.4214 14.237 15.4118 14.3975 15.3466 14.5387C15.3078 14.6486 15.2365 14.744 15.1421 14.8123C15.0477 14.8806 14.9347 14.9185 14.8182 14.921C14.7362 14.9327 14.6529 14.9327 14.5709 14.921C14.4725 14.8914 14.3781 14.8498 14.2898 14.7973L3.53035 9.59184V12.2002C3.53035 16.8997 3.53035 21.5918 3.53035 26.2763C3.53035 26.4449 3.53035 26.4899 3.76645 26.5799L17.7526 33.3256H17.8763V16.7536C17.8908 16.6749 17.876 16.5936 17.8345 16.5252C17.7931 16.4568 17.7279 16.406 17.6514 16.3826C17.4545 16.3098 17.2629 16.2234 17.078 16.124L16.8419 16.0115C16.7194 15.9649 16.6074 15.8941 16.5128 15.8033C16.4182 15.7125 16.3427 15.6036 16.291 15.4831C16.2603 15.4141 16.2445 15.3394 16.2445 15.2639C16.2445 15.1884 16.2603 15.1137 16.291 15.0446C16.3279 14.9429 16.3951 14.8549 16.4835 14.7926C16.572 14.7302 16.6775 14.6966 16.7857 14.6961C16.9892 14.7085 17.1881 14.762 17.3703 14.8535L17.6514 14.9997C17.8522 15.1047 18.0586 15.1986 18.2698 15.2807C18.3405 15.2925 18.4127 15.2925 18.4834 15.2807C18.5391 15.2914 18.5963 15.2914 18.652 15.2807C19.4278 14.9322 20.1698 14.5612 20.9006 14.1565L21.6764 13.7742L21.9799 13.6393C22.062 13.6276 22.1452 13.6276 22.2273 13.6393L22.2947 13.6843ZM26.9043 12.7848C26.4209 13.0209 25.9824 13.2345 25.5327 13.4369C25.4693 13.4528 25.4138 13.4913 25.3766 13.545C25.3393 13.5988 25.3229 13.6643 25.3303 13.7292C25.3303 14.8535 25.3303 15.9778 25.3303 17.1021V18.4288L26.2185 18.0015L27.6351 17.327C27.6985 17.311 27.754 17.2726 27.7912 17.2188C27.8285 17.1651 27.8449 17.0996 27.8375 17.0346C27.8375 15.9104 27.8375 14.7861 27.8375 13.6056V12.3126L26.9043 12.7848ZM15.7401 8.11903L24.4196 12.3014C24.5012 12.3184 24.5854 12.3184 24.667 12.3014C25.409 11.9753 26.0723 11.6605 26.9156 11.267L27.2978 11.0871C26.1173 10.5587 17.449 6.36513 13.4916 4.4426C13.4161 4.39612 13.3319 4.36551 13.2442 4.35266V4.27396V4.34141L11.8838 4.9935L10.6696 5.57813L15.7401 8.11903ZM14.7957 3.68933L28.647 10.3451H28.8831C30.0074 9.83919 31.0192 9.33326 32.0761 8.82733L32.6045 8.5575L31.4802 8.02908L18.6071 1.78928H18.5171L15.2005 3.31831L14.6158 3.59938L14.7957 3.68933Z" fill="#28402A"/>
</g>
<defs>
<clipPath id="clip0_43_4319">
<rect width="37.0004" height="34.6281" fill="white" transform="translate(0 0.440002)"/>
</clipPath>
</defs>
</svg>
