<svg width="20" height="20" viewBox="0 0 20 20" fill="none" xmlns="http://www.w3.org/2000/svg">
<path d="M7.8125 7.50224C7.9887 7.00136 8.33647 6.579 8.79423 6.30998C9.25199 6.04095 9.7902 5.9426 10.3135 6.03237C10.8368 6.12213 11.3115 6.39421 11.6534 6.80041C11.9954 7.20661 12.1825 7.72072 12.1817 8.25168C12.1817 9.75056 9.93342 10.5 9.93342 10.5M9.96094 13.5H9.97094M19 10C19 14.9706 14.9706 19 10 19C5.02944 19 1 14.9706 1 10C1 5.02944 5.02944 1 10 1C14.9706 1 19 5.02944 19 10Z" stroke="#0D2B3D" stroke-width="1.3" stroke-linecap="round" stroke-linejoin="round"/>
</svg>
