<svg width="30" height="23" viewBox="0 0 30 23" fill="none" xmlns="http://www.w3.org/2000/svg">
<path d="M6.62555 22.6374C6.25132 22.6374 5.93741 22.5106 5.68381 22.257C5.43022 22.0034 5.30386 21.69 5.30474 21.3166V19.9958H2.66311C1.93667 19.9958 1.31456 19.7369 0.796804 19.2192C0.279045 18.7014 0.0206061 18.0797 0.0214866 17.3542V2.82522C0.0214866 2.09877 0.280366 1.47667 0.798125 0.958913C1.31588 0.441154 1.93755 0.182715 2.66311 0.183596H26.4377C27.1642 0.183596 27.7863 0.442475 28.3041 0.960234C28.8218 1.47799 29.0803 2.09966 29.0794 2.82522V17.3542C29.0794 18.0806 28.8205 18.7027 28.3027 19.2205C27.785 19.7382 27.1633 19.9967 26.4377 19.9958H23.7961V21.3166C23.7961 21.6908 23.6693 22.0047 23.4157 22.2583C23.1621 22.5119 22.8487 22.6383 22.4753 22.6374H6.62555ZM2.66311 17.3542H26.4377V2.82522H2.66311V17.3542ZM5.43333 14.5472C5.38099 14.6145 5.42895 14.7125 5.51419 14.7125H23.5912C23.6757 14.7125 23.7238 14.6162 23.6732 14.5486L17.9329 6.89496C17.8924 6.84092 17.8116 6.84021 17.7701 6.89353L13.3077 12.6309C13.2676 12.6825 13.19 12.6838 13.1482 12.6336L10.009 8.86662C9.96717 8.81639 9.88962 8.8177 9.84947 8.86931L5.43333 14.5472Z" fill="white"/>
</svg>
