<svg width="12" height="12" viewBox="0 0 12 12" fill="none" xmlns="http://www.w3.org/2000/svg">
<path d="M4.23066 8.91699L0.75 8.91699" stroke="white" stroke-width="1.16667" stroke-linecap="round"/>
<path d="M11.25 3.0835H7.75" stroke="white" stroke-width="1.16667" stroke-linecap="round"/>
<path d="M0.755417 3.0835L0.75 3.0835" stroke="white" stroke-width="1.16667" stroke-linecap="round"/>
<path d="M11.2554 8.91699L11.25 8.91699" stroke="white" stroke-width="1.16667" stroke-linecap="round"/>
<path d="M7.71103 7.16699C8.67219 7.16699 9.45137 7.95049 9.45137 8.91699C9.45137 9.88349 8.67219 10.667 7.71103 10.667C6.74988 10.667 5.9707 9.88349 5.9707 8.91699C5.9707 7.95049 6.74988 7.16699 7.71103 7.16699Z" stroke="white" stroke-width="1.16667"/>
<path d="M4.23057 1.3335C5.19172 1.3335 5.9709 2.117 5.9709 3.0835C5.9709 4.04999 5.19172 4.8335 4.23057 4.8335C3.26941 4.8335 2.49023 4.04999 2.49023 3.0835C2.49023 2.117 3.26941 1.3335 4.23057 1.3335Z" stroke="white" stroke-width="1.16667"/>
</svg>
