<svg width="18" height="16" viewBox="0 0 18 16" fill="none" xmlns="http://www.w3.org/2000/svg">
<path d="M5.10091 0.856934C3.88608 0.859356 2.7217 1.34302 1.86268 2.20204C1.00366 3.06105 0.520001 4.22544 0.517578 5.44027C0.517578 7.14693 1.80424 8.7536 3.37258 10.4019C4.94091 12.0503 6.87091 13.7186 8.40925 15.2569C8.52643 15.374 8.68529 15.4397 8.85091 15.4397C9.01654 15.4397 9.17539 15.374 9.29258 15.2569C10.8309 13.7194 12.7609 12.0503 14.3292 10.4019C15.8976 8.7536 17.1842 7.14693 17.1842 5.44027C17.1842 2.9161 15.1251 0.856934 12.6009 0.856934C11.1526 0.856934 9.89091 1.63443 8.85091 2.9561C7.81091 1.63443 6.54924 0.856934 5.10091 0.856934ZM5.10091 2.10693C6.32091 2.10693 7.33674 2.75693 8.32258 4.31527C8.37893 4.40443 8.45692 4.47788 8.5493 4.52878C8.64168 4.57968 8.74544 4.60637 8.85091 4.60637C8.95638 4.60637 9.06014 4.57968 9.15252 4.52878C9.2449 4.47788 9.3229 4.40443 9.37924 4.31527C10.3651 2.75693 11.3809 2.10693 12.6009 2.10693C14.4492 2.10693 15.9342 3.59193 15.9342 5.44027C15.9342 6.44193 14.9292 7.96027 13.4242 9.54027C12.0526 10.9828 10.3467 12.4894 8.85091 13.9478C7.35508 12.4894 5.64924 10.9828 4.27758 9.5411C2.77258 7.96027 1.76758 6.44027 1.76758 5.44027C1.76758 3.59193 3.25258 2.10693 5.10091 2.10693Z" fill="#232D40"/>
</svg>
