<svg width="31" height="26" viewBox="0 0 31 26" fill="none" xmlns="http://www.w3.org/2000/svg">
<path d="M27.0348 18.6236V17.5627C27.0348 14.4678 25.8053 11.4997 23.6169 9.31122C21.4284 7.12278 18.4603 5.89333 15.3654 5.89333M15.3654 5.89333C12.2704 5.89333 9.30227 7.12278 7.11383 9.31122C4.92538 11.4997 3.69593 14.4678 3.69593 17.5627V18.6236M15.3654 5.89333V1.6499M29.1565 18.6236H1.57422L2.25317 20.8938C2.51407 21.7713 3.05173 22.5409 3.78591 23.0877C4.52009 23.6345 5.41142 23.9292 6.32686 23.9279H24.4038C25.3193 23.9292 26.2106 23.6345 26.9448 23.0877C27.679 22.5409 28.2166 21.7713 28.4775 20.8938L29.1565 18.6236Z" stroke="white" stroke-width="3.07398" stroke-linecap="square" stroke-linejoin="round"/>
</svg>
