<svg width="37" height="36" viewBox="0 0 37 36" fill="none" xmlns="http://www.w3.org/2000/svg">
<path d="M4.56315 33.9078C3.8256 33.9108 3.11691 33.6214 2.59222 33.103C2.06754 32.5847 1.76961 31.8795 1.76367 31.142V11.1634C1.78411 10.4336 2.0877 9.7404 2.6102 9.2305C3.13269 8.72059 3.83309 8.434 4.56315 8.43136H10.9716L16.593 2.80992C16.7161 2.68739 16.8805 2.61522 17.054 2.60754C17.2338 2.61688 17.4047 2.68842 17.5375 2.80992L23.2376 8.46509H29.5111C29.6841 8.46509 29.8499 8.53379 29.9722 8.65608C30.0945 8.77837 30.1632 8.94423 30.1632 9.11718V12.8948H33.1538C33.3289 12.8947 33.4972 12.9627 33.623 13.0844C33.7489 13.206 33.8226 13.3719 33.8284 13.5469V18.044H33.8959C34.2588 18.044 34.6071 18.1866 34.8658 18.4411C35.1245 18.6956 35.2728 19.0416 35.2787 19.4044V25.2732C35.2785 25.7787 35.1441 26.275 34.8893 26.7115C34.6345 27.1481 34.2684 27.5092 33.8284 27.7579V33.3231C33.8256 33.4963 33.7564 33.6617 33.635 33.7852C33.5136 33.9086 33.3494 33.9807 33.1763 33.9865H4.56315V33.9078ZM3.09033 31.1195C3.09326 31.3129 3.13427 31.5039 3.211 31.6815C3.28774 31.859 3.39871 32.0197 3.53756 32.1544C3.67642 32.2891 3.84045 32.3951 4.02028 32.4664C4.20011 32.5377 4.39222 32.5728 4.58564 32.5699H32.5242V28.0727H24.1595C23.0461 28.0259 21.9957 27.5436 21.2345 26.7298C20.4732 25.916 20.0621 24.8357 20.0896 23.7217V23.4856C20.1246 22.391 20.5842 21.3529 21.3712 20.5912C22.1581 19.8295 23.2105 19.4039 24.3057 19.4044H31.726C31.9381 19.3831 32.1354 19.2861 32.282 19.1313C32.4285 18.9765 32.5145 18.7742 32.5242 18.5612V14.0641H4.6531C4.12885 14.0657 3.61331 13.93 3.15779 13.6706L3.09033 31.1195ZM33.7272 19.3145C33.573 19.7111 33.3094 20.0558 32.9671 20.3085C32.6248 20.5613 32.2178 20.7117 31.7934 20.7423H24.2382C23.4923 20.7361 22.7735 21.022 22.2357 21.5388C21.6978 22.0557 21.3835 22.7625 21.36 23.5081V23.7329C21.3404 24.1173 21.3971 24.5017 21.5269 24.8639C21.6568 25.2262 21.8571 25.5591 22.1164 25.8435C22.3756 26.1278 22.6887 26.358 23.0375 26.5206C23.3862 26.6833 23.7638 26.7752 24.1483 26.791H32.4343C32.8389 26.7851 33.2249 26.6202 33.5089 26.332C33.7929 26.0438 33.9521 25.6554 33.9521 25.2507V19.292H33.7272V19.3145ZM8.37449 12.8948L11.7474 12.8273L15.1202 9.45447C15.2644 9.33135 15.4478 9.2636 15.6374 9.26334C15.7329 9.27132 15.8259 9.2983 15.9108 9.34271C15.9958 9.38711 16.071 9.44804 16.1321 9.52192C16.2002 9.62077 16.2837 9.70807 16.3794 9.78051C16.599 9.94825 16.8676 10.0391 17.1439 10.0391C17.3387 10.0367 17.5305 9.99108 17.7055 9.90553C17.8805 9.81998 18.0343 9.69664 18.1558 9.54441C18.2546 9.40951 18.398 9.31392 18.5606 9.27458H18.6617C18.7535 9.27411 18.8444 9.29174 18.9293 9.32647C19.0141 9.3612 19.0913 9.41233 19.1564 9.47695L22.5293 12.906H25.8235L17.0652 4.24901L8.37449 12.8948ZM13.4788 12.8948L20.663 12.8273L18.583 10.8149C18.1582 11.1786 17.6131 11.3711 17.054 11.3545C16.5047 11.3562 15.9692 11.1829 15.525 10.8598L13.4788 12.8948ZM27.6223 12.8948H28.8703V9.803H24.5755L27.6223 12.8948ZM4.58564 9.78051C4.19868 9.78325 3.82784 9.93589 3.55109 10.2064C3.27433 10.4768 3.1132 10.844 3.10158 11.2308V11.377C3.12103 11.7592 3.28311 12.1202 3.55579 12.3887C3.82847 12.6573 4.19194 12.8138 4.5744 12.8273H6.59812L9.64494 9.7243L4.58564 9.78051Z" fill="#28402A"/>
<path d="M23.6982 24.5422V22.9457H25.3959V24.5871L23.6982 24.5422Z" fill="#28402A"/>
</svg>
