<svg width="37" height="35" viewBox="0 0 37 35" fill="none" xmlns="http://www.w3.org/2000/svg">
<path d="M8.13867 29.7068C7.31959 29.7038 6.5349 29.3772 5.95571 28.798C5.37653 28.2188 5.04984 27.4341 5.04688 26.615V11.9993C5.05279 11.1821 5.38079 10.4003 5.95965 9.82355C6.53852 9.24679 7.32152 8.92164 8.13867 8.9187H32.4908C32.8968 8.9187 33.2988 8.99867 33.674 9.15405C34.0491 9.30943 34.3899 9.53717 34.677 9.82427C34.9641 10.1114 35.1918 10.4522 35.3472 10.8273C35.5026 11.2024 35.5826 11.6045 35.5826 12.0105V26.6263C35.5826 27.4463 35.2568 28.2327 34.677 28.8125C34.0972 29.3923 33.3108 29.7181 32.4908 29.7181L8.13867 29.7068ZM8.13867 10.2903C7.66755 10.2903 7.21572 10.4775 6.88258 10.8106C6.54945 11.1438 6.36229 11.5956 6.36229 12.0667V26.6825C6.37975 27.1418 6.57458 27.5765 6.90584 27.8952C7.23711 28.2139 7.679 28.3917 8.13867 28.3914H32.4908C32.9619 28.3914 33.4137 28.2042 33.7469 27.8711C34.08 27.538 34.2672 27.0861 34.2672 26.615V11.9993C34.2497 11.5399 34.0549 11.1052 33.7236 10.7866C33.3923 10.4679 32.9504 10.29 32.4908 10.2903H8.13867Z" fill="#28402A"/>
<path d="M4.49609 26.0304C3.67701 26.0274 2.89232 25.7007 2.31314 25.1216C1.73395 24.5424 1.40726 23.7577 1.4043 22.9386V8.32284C1.41608 7.50962 1.74666 6.73354 2.3249 6.16161C2.90313 5.58968 3.6828 5.26763 4.49609 5.26477H28.837C29.657 5.26477 30.4434 5.59051 31.0232 6.17034C31.603 6.75016 31.9288 7.53657 31.9288 8.35657V9.5708C31.9318 9.65644 31.9179 9.74184 31.8878 9.82211C31.8578 9.90238 31.8123 9.97594 31.7538 10.0386C31.6953 10.1012 31.6251 10.1518 31.547 10.1872C31.469 10.2227 31.3848 10.2425 31.2992 10.2454C31.2126 10.2499 31.126 10.2371 31.0444 10.2078C30.9628 10.1785 30.8879 10.1332 30.8241 10.0745C30.7602 10.0159 30.7087 9.94515 30.6725 9.86638C30.6363 9.7876 30.6162 9.70241 30.6133 9.61577V8.35657C30.6133 7.88544 30.4262 7.43361 30.093 7.10048C29.7599 6.76734 29.3081 6.58019 28.837 6.58019H4.49609C4.26187 6.57871 4.02967 6.62356 3.81285 6.71217C3.59603 6.80077 3.39887 6.93139 3.23273 7.09649C3.06659 7.26159 2.93473 7.45791 2.84476 7.67417C2.75479 7.89042 2.70847 8.12234 2.70847 8.35657V22.9723C2.70994 23.2056 2.75735 23.4363 2.84798 23.6513C2.93862 23.8662 3.0707 24.0612 3.2367 24.2251C3.4027 24.389 3.59935 24.5186 3.81544 24.6066C4.03153 24.6945 4.26281 24.7389 4.49609 24.7375H5.71033C5.797 24.7417 5.88196 24.7633 5.96021 24.8008C6.03845 24.8383 6.10842 24.8911 6.16601 24.956C6.22361 25.0209 6.26766 25.0967 6.29559 25.1789C6.32352 25.261 6.33477 25.3479 6.32868 25.4345C6.32309 25.5967 6.25614 25.7508 6.14137 25.8656C6.02659 25.9803 5.87254 26.0473 5.71033 26.0529L4.49609 26.0304Z" fill="#28402A"/>
<path d="M5.71068 13.8768C5.53774 13.8768 5.37188 13.8081 5.24959 13.6858C5.1273 13.5635 5.05859 13.3977 5.05859 13.2247C5.05859 13.0518 5.1273 12.8859 5.24959 12.7636C5.37188 12.6413 5.53774 12.5726 5.71068 12.5726H34.9422C35.1151 12.5726 35.281 12.6413 35.4033 12.7636C35.5256 12.8859 35.5943 13.0518 35.5943 13.2247C35.5943 13.3977 35.5256 13.5635 35.4033 13.6858C35.281 13.8081 35.1151 13.8768 34.9422 13.8768H5.71068Z" fill="#28402A"/>
<path d="M5.71057 17.5306C5.62396 17.5292 5.53851 17.5105 5.4592 17.4757C5.37989 17.4408 5.30832 17.3906 5.24866 17.3278C5.189 17.265 5.14245 17.1909 5.11173 17.1099C5.08101 17.0289 5.06673 16.9426 5.06973 16.8561C5.07534 16.6879 5.14466 16.5281 5.26364 16.4091C5.38263 16.2901 5.54239 16.2208 5.71057 16.2152H34.9421C35.1017 16.2361 35.2483 16.3144 35.3545 16.4354C35.4607 16.5564 35.5192 16.7119 35.5192 16.8729C35.5192 17.0339 35.4607 17.1894 35.3545 17.3104C35.2483 17.4315 35.1017 17.5097 34.9421 17.5306H5.71057Z" fill="#28402A"/>
<path d="M9.35326 22.3987C9.18032 22.3987 9.01445 22.33 8.89216 22.2077C8.76987 22.0854 8.70117 21.9195 8.70117 21.7466C8.70117 21.5736 8.76987 21.4078 8.89216 21.2855C9.01445 21.1632 9.18032 21.0945 9.35326 21.0945H17.8866C18.0596 21.0945 18.2254 21.1632 18.3477 21.2855C18.47 21.4078 18.5387 21.5736 18.5387 21.7466C18.5387 21.9195 18.47 22.0854 18.3477 22.2077C18.2254 22.33 18.0596 22.3987 17.8866 22.3987H9.35326Z" fill="#28402A"/>
<path d="M9.36353 26.0298C9.27691 26.0296 9.19126 26.0115 9.11194 25.9767C9.03263 25.9418 8.96135 25.891 8.90257 25.8274C8.79434 25.6924 8.74317 25.5204 8.75997 25.3481C8.77678 25.1759 8.86023 25.017 8.99251 24.9055C9.10727 24.8008 9.25367 24.7375 9.4085 24.7256H14.2879C14.3746 24.7299 14.4595 24.7514 14.5378 24.7889C14.616 24.8265 14.686 24.8792 14.7436 24.9441C14.8012 25.0091 14.8452 25.0848 14.8732 25.167C14.9011 25.2492 14.9124 25.3361 14.9063 25.4226C14.9007 25.5849 14.8337 25.7389 14.719 25.8537C14.6042 25.9685 14.4501 26.0354 14.2879 26.041H9.36353V26.0298Z" fill="#28402A"/>
<path d="M25.1833 26.031C25.0104 26.031 24.8445 25.9623 24.7222 25.84C24.6 25.7177 24.5313 25.5518 24.5313 25.3789V21.7474C24.5312 21.5734 24.5996 21.4064 24.7215 21.2823C24.8435 21.1582 25.0094 21.0871 25.1833 21.0841H31.277C31.451 21.0871 31.6168 21.1582 31.7388 21.2823C31.8608 21.4064 31.9291 21.5734 31.9291 21.7474V25.4014C31.9291 25.5743 31.8604 25.7402 31.7381 25.8625C31.6158 25.9848 31.4499 26.0535 31.277 26.0535L25.1833 26.031ZM25.8579 24.7943H30.6699V22.4108H25.9029L25.8579 24.7943Z" fill="#28402A"/>
</svg>
