<svg width="22" height="21" viewBox="0 0 22 21" fill="none" xmlns="http://www.w3.org/2000/svg">
<path d="M0.86914 8.34867C0.86914 3.86719 4.52051 0.21582 9.00199 0.215821C13.4835 0.215821 17.1348 3.86719 17.1348 8.34867C17.1348 10.2871 16.4506 12.0696 15.312 13.4696L20.8143 18.9719C20.8969 19.0489 20.9632 19.1418 21.0092 19.245C21.0552 19.3482 21.0799 19.4596 21.0819 19.5725C21.0839 19.6855 21.0631 19.7977 21.0208 19.9025C20.9785 20.0072 20.9155 20.1024 20.8356 20.1823C20.7557 20.2622 20.6606 20.3252 20.5558 20.3675C20.451 20.4098 20.3388 20.4306 20.2259 20.4286C20.1129 20.4266 20.0015 20.4019 19.8983 20.3559C19.7951 20.3099 19.7022 20.2436 19.6252 20.1609L14.1229 14.6586C12.6772 15.8386 10.8681 16.4826 9.00199 16.4815C4.52051 16.4815 0.86914 12.8302 0.86914 8.34867ZM2.5518 8.34867C2.55017 9.19618 2.7159 10.0357 3.03948 10.819C3.36306 11.6023 3.83811 12.314 4.43739 12.9133C5.03667 13.5126 5.74838 13.9876 6.53169 14.3112C7.31499 14.6348 8.15448 14.8005 9.00199 14.7989C10.6691 14.8018 12.2721 14.1566 13.4723 12.9995C13.5226 12.9309 13.5831 12.8704 13.6517 12.8201C14.8095 11.6198 15.4551 10.0163 15.4522 8.34867C15.4538 7.50116 15.2881 6.66167 14.9645 5.87837C14.6409 5.09506 14.1659 4.38335 13.5666 3.78407C12.9673 3.18479 12.2556 2.70974 11.4723 2.38616C10.689 2.06258 9.8495 1.89685 9.00199 1.89848C8.15448 1.89685 7.31499 2.06258 6.53169 2.38616C5.74838 2.70974 5.03667 3.18479 4.43739 3.78407C3.83811 4.38335 3.36306 5.09506 3.03948 5.87837C2.7159 6.66167 2.55017 7.50116 2.5518 8.34867Z" fill="white"/>
</svg>
