<svg width="18" height="18" viewBox="0 0 18 18" fill="none" xmlns="http://www.w3.org/2000/svg">
<g clip-path="url(#clip0_880_2127)">
<g clip-path="url(#clip1_880_2127)">
<path d="M10.75 0C14.745 0 18 3.255 18 7.25C18 11.245 14.745 14.5 10.75 14.5C9.022 14.5 7.433 13.89 6.185 12.875L1.28 17.78C1.21134 17.8537 1.12854 17.9128 1.03654 17.9538C0.94454 17.9948 0.845224 18.0168 0.744522 18.0186C0.64382 18.0204 0.543791 18.0018 0.450403 17.9641C0.357016 17.9264 0.272181 17.8703 0.200962 17.799C0.129744 17.7278 0.0735989 17.643 0.0358772 17.5496C-0.00184441 17.4562 -0.0203686 17.3562 -0.0185909 17.2555C-0.0168133 17.1548 0.00522614 17.0555 0.0462189 16.9635C0.0872116 16.8715 0.146313 16.7887 0.219999 16.72L5.125 11.815C4.07313 10.5262 3.49905 8.91353 3.5 7.25C3.5 3.255 6.755 0 10.75 0ZM10.75 1.5C9.99449 1.49855 9.24613 1.64629 8.54786 1.93474C7.84958 2.22319 7.21513 2.64668 6.6809 3.1809C6.14668 3.71513 5.72319 4.34958 5.43474 5.04786C5.14629 5.74613 4.99855 6.49449 5 7.25C4.99737 8.73614 5.57254 10.1651 6.604 11.235C6.66516 11.2799 6.71911 11.3338 6.764 11.395C7.83399 12.4271 9.26338 13.0026 10.75 13C11.5055 13.0014 12.2539 12.8537 12.9521 12.5653C13.6504 12.2768 14.2849 11.8533 14.8191 11.3191C15.3533 10.7849 15.7768 10.1504 16.0653 9.45214C16.3537 8.75387 16.5014 8.00551 16.5 7.25C16.5014 6.49449 16.3537 5.74613 16.0653 5.04786C15.7768 4.34958 15.3533 3.71513 14.8191 3.1809C14.2849 2.64668 13.6504 2.22319 12.9521 1.93474C12.2539 1.64629 11.5055 1.49855 10.75 1.5Z" fill="#95979C"/>
</g>
</g>
<defs>
<clipPath id="clip0_880_2127">
<rect width="18" height="18" fill="white" transform="matrix(-1 0 0 1 18 0)"/>
</clipPath>
<clipPath id="clip1_880_2127">
<rect width="19" height="19" fill="white" transform="matrix(-1 0 0 1 18 0)"/>
</clipPath>
</defs>
</svg>
