<svg width="29" height="23" viewBox="0 0 29 23" fill="none" xmlns="http://www.w3.org/2000/svg">
<path d="M14.1133 0.138184C12.8177 0.138184 11.5752 0.652848 10.6591 1.56896C9.74298 2.48506 9.22832 3.72757 9.22832 5.02314H12.0197C12.0197 4.4679 12.2403 3.9354 12.6329 3.54278C13.0255 3.15016 13.558 2.92959 14.1133 2.92959C14.6685 2.92959 15.201 3.15016 15.5936 3.54278C15.9863 3.9354 16.2068 4.4679 16.2068 5.02314C16.2068 5.57839 15.9863 6.11089 15.5936 6.50351C15.201 6.89613 14.6685 7.1167 14.1133 7.1167C13.3456 7.1167 12.7176 7.74477 12.7176 8.5124V10.9549L0.714531 19.9572C0.480184 20.1329 0.307079 20.378 0.219736 20.6576C0.132392 20.9372 0.135239 21.2372 0.227873 21.5151C0.320507 21.793 0.498231 22.0347 0.735871 22.206C0.973511 22.3773 1.25902 22.4694 1.55195 22.4694H26.6746C26.9675 22.4694 27.2531 22.3773 27.4907 22.206C27.7283 22.0347 27.9061 21.793 27.9987 21.5151C28.0913 21.2372 28.0942 20.9372 28.0068 20.6576C27.9195 20.378 27.7464 20.1329 27.512 19.9572L15.509 10.9549V9.69875C16.5162 9.39847 17.3997 8.78135 18.0283 7.93904C18.6568 7.09673 18.997 6.07415 18.9982 5.02314C18.9982 3.72757 18.4836 2.48506 17.5675 1.56896C16.6514 0.652848 15.4089 0.138184 14.1133 0.138184ZM14.1133 13.3974L22.4875 19.678H5.73906L14.1133 13.3974Z" fill="white"/>
</svg>
