<svg width="17" height="17" viewBox="0 0 17 17" fill="none" xmlns="http://www.w3.org/2000/svg">
<g clip-path="url(#clip0_43_4247)">
<path d="M15.7627 16.4102C14.7106 16.4102 13.6898 16.306 12.7002 16.0977C11.7002 15.8893 10.7471 15.5898 9.84082 15.1992C8.93457 14.8086 8.0752 14.3372 7.2627 13.7852C6.4502 13.2331 5.7002 12.6081 5.0127 11.9102C4.3252 11.2227 3.7054 10.4727 3.15332 9.66016C2.60124 8.84766 2.13509 7.98568 1.75488 7.07422C1.37467 6.16276 1.0804 5.21224 0.87207 4.22266C0.663737 3.23307 0.55957 2.21224 0.55957 1.16016C0.55957 1.13932 0.55957 1.12109 0.55957 1.10547C0.55957 1.08984 0.55957 1.07161 0.55957 1.05078C0.55957 0.873698 0.62207 0.722656 0.74707 0.597656C0.87207 0.472656 1.02311 0.410156 1.2002 0.410156H4.3877C4.56478 0.410156 4.71582 0.472656 4.84082 0.597656C4.96582 0.722656 5.02832 0.873698 5.02832 1.05078C5.02832 1.65495 5.0752 2.24609 5.16895 2.82422C5.2627 3.40234 5.39811 3.96224 5.5752 4.50391L5.55957 4.42578C5.56999 4.45703 5.5778 4.48828 5.58301 4.51953C5.58822 4.55078 5.59082 4.58203 5.59082 4.61328C5.59082 4.70703 5.57259 4.79036 5.53613 4.86328C5.49967 4.9362 5.4554 4.9987 5.40332 5.05078L3.21582 7.26953L3.34082 7.41016C3.67415 8.07682 4.05436 8.71224 4.48145 9.31641C4.90853 9.91016 5.37728 10.4648 5.8877 10.9805C6.39811 11.4961 6.94499 11.9727 7.52832 12.4102C8.10124 12.8372 8.71061 13.2174 9.35645 13.5508L9.43457 13.5977L9.65332 13.707L11.7627 11.5195C11.8148 11.4674 11.8799 11.4232 11.958 11.3867C12.0361 11.3503 12.1221 11.332 12.2158 11.332H12.4033C12.9033 11.4987 13.4346 11.6289 13.9971 11.7227C14.5596 11.8164 15.1325 11.8633 15.7158 11.8633C15.7158 11.8633 15.7184 11.8633 15.7236 11.8633C15.7288 11.8633 15.7314 11.8633 15.7314 11.8633C15.9085 11.8737 16.0596 11.9414 16.1846 12.0664C16.3096 12.1914 16.3721 12.3424 16.3721 12.5195V15.7383C16.3721 15.9049 16.3148 16.0482 16.2002 16.168C16.0856 16.2878 15.945 16.3581 15.7783 16.3789H15.7314L15.7627 16.4102ZM11.3096 14.3789C11.8304 14.5664 12.3877 14.7201 12.9814 14.8398C13.5752 14.9596 14.1846 15.0404 14.8096 15.082H14.8408H15.1377V13.1289H14.8877C14.4606 13.0977 14.0492 13.0456 13.6533 12.9727C13.2575 12.8997 12.8669 12.8112 12.4814 12.707L12.5596 12.7227H12.4033L10.9033 14.2383L11.3096 14.3789ZM1.87207 1.98828C1.91374 2.64453 1.99707 3.27474 2.12207 3.87891C2.24707 4.48307 2.40332 5.07161 2.59082 5.64453L2.55957 5.55078L2.7002 5.97266L4.24707 4.41016L4.18457 4.26953C4.0804 3.9362 3.99447 3.57422 3.92676 3.18359C3.85905 2.79297 3.80957 2.39453 3.77832 1.98828V1.95703V1.64453L1.87207 1.69141V1.98828ZM15.1846 8.12891C15.1429 7.27474 14.9502 6.46745 14.6064 5.70703C14.2523 4.94661 13.7913 4.27995 13.2236 3.70703C12.6559 3.13411 11.9971 2.67057 11.2471 2.31641C10.4971 1.97266 9.69499 1.77474 8.84082 1.72266H8.80957L8.7627 0.472656V0.410156H8.80957C9.85124 0.451823 10.8252 0.680989 11.7314 1.09766C12.6377 1.51432 13.4294 2.06641 14.1064 2.75391C14.7835 3.44141 15.3304 4.23828 15.7471 5.14453C16.1533 6.05078 16.3721 7.01953 16.4033 8.05078V8.06641V8.12891H15.1846ZM11.5283 8.12891C11.4346 7.42057 11.1377 6.8138 10.6377 6.30859C10.1377 5.80339 9.53353 5.50391 8.8252 5.41016H8.80957L8.7627 4.17578V4.09766H8.8252C9.34603 4.14974 9.83561 4.29036 10.2939 4.51953C10.7523 4.73828 11.1559 5.02474 11.5049 5.37891C11.8538 5.73307 12.1325 6.13932 12.3408 6.59766C12.5596 7.05599 12.6898 7.54557 12.7314 8.06641L12.7471 8.08203V8.12891H11.5283Z" fill="#2B804A"/>
</g>
<defs>
<clipPath id="clip0_43_4247">
<rect width="15.86" height="16" fill="white" transform="matrix(1 0 0 -1 0.55957 16.4102)"/>
</clipPath>
</defs>
</svg>
