<svg width="28" height="25" viewBox="0 0 28 25" fill="none" xmlns="http://www.w3.org/2000/svg">
<g clip-path="url(#clip0_169_1875)">
<path d="M24.6592 3.49832C25.7376 3.49832 26.0217 4.31389 25.7031 6.23094C25.3375 8.42241 24.285 15.6781 23.4464 20.1953C23.125 21.9224 22.5464 22.6689 21.704 22.6689C21.2405 22.6689 20.6984 22.4434 20.0748 22.0318C19.2304 21.4743 14.9684 18.6544 14.0425 17.9923C13.1981 17.3898 12.0333 16.6644 13.4946 15.2348C14.0146 14.7262 17.4218 11.4717 20.0767 8.93958C20.3597 8.669 20.1227 8.25642 19.808 8.25642C19.7284 8.25741 19.6509 8.28213 19.5854 8.32742C16.0075 10.7002 11.046 13.9942 10.4146 14.423C9.78329 14.8519 9.1673 15.1273 8.34789 15.1273C7.9286 15.1273 7.45557 15.0554 6.90003 14.8951C5.65749 14.5382 4.44374 14.1131 3.97071 13.951C2.15152 13.3264 2.58329 12.5175 4.35067 11.7394C11.4365 8.62198 20.6063 4.82145 21.8719 4.29566C23.1048 3.78329 24.0211 3.49832 24.6592 3.49832ZM24.6592 1.57935C23.7841 1.57935 22.7306 1.86144 21.1369 2.52252L20.945 2.60216C14.1422 5.42689 7.97465 8.04821 3.57828 9.98254C2.89033 10.2848 0.800563 11.204 0.88212 13.1268C0.916661 13.9567 1.37338 15.087 3.348 15.7654L3.4948 15.8143C4.04555 16.0043 5.19406 16.3996 6.37135 16.7393C7.08713 16.9446 7.73478 17.0444 8.34789 17.0444C9.23512 17.0475 10.1081 16.8211 10.8819 16.3871C10.879 16.4946 10.8819 16.603 10.8896 16.7114C11.0057 18.19 12.1494 19.0017 12.8325 19.4863L12.9285 19.5534C13.9369 20.2759 18.5022 23.2916 19.0193 23.6322C19.9922 24.2751 20.8702 24.5859 21.7049 24.5859C23.0175 24.5859 24.7129 23.8855 25.3337 20.5446C25.9228 17.3764 26.6031 12.9512 27.1001 9.71964C27.3122 8.3399 27.4858 7.20962 27.5971 6.54565C27.8197 5.20621 27.9224 3.68926 26.9907 2.58969C26.5993 2.12913 25.8777 1.57935 24.6592 1.57935Z" fill="#C2C5CA"/>
</g>
<defs>
<clipPath id="clip0_169_1875">
<rect width="27.8251" height="23.9872" fill="white" transform="translate(0.559045 0.929443)"/>
</clipPath>
</defs>
</svg>
