<svg width="26" height="27" viewBox="0 0 26 27" fill="none" xmlns="http://www.w3.org/2000/svg">
<g clip-path="url(#clip0_169_1870)">
<path d="M13.468 0.728074C6.42436 0.728074 0.689504 6.45622 0.687585 13.5008C0.684768 15.7425 1.27321 17.9454 2.39355 19.8871L0.65976 26.3138L7.35411 24.7325C9.2277 25.7526 11.327 26.287 13.4603 26.2869H13.4651C20.5077 26.2869 26.2397 20.5559 26.2435 13.5132C26.2494 11.834 25.922 10.1703 25.2803 8.61854C24.6386 7.06674 23.6954 5.65767 22.5054 4.47295C21.3216 3.28202 19.9132 2.33779 18.3619 1.69497C16.8106 1.05215 15.1472 0.723506 13.468 0.728074ZM13.4651 3.28607C14.8087 3.28311 16.1395 3.54639 17.3807 4.06071C18.622 4.57502 19.749 5.33017 20.6967 6.28255C21.6483 7.22964 22.4024 8.3562 22.9153 9.59692C23.4282 10.8376 23.6897 12.1678 23.6846 13.5104C23.6827 19.1445 19.0992 23.728 13.4632 23.728C11.7575 23.7275 10.079 23.3007 8.58033 22.4864L7.71871 22.0162L6.7669 22.2417L4.24824 22.8366L4.86232 20.553L5.14057 19.5273L4.60997 18.6081C3.71459 17.055 3.24401 15.2935 3.24558 13.5008C3.24846 7.86858 7.83193 3.28607 13.4651 3.28607ZM8.9459 7.60376C8.73193 7.60376 8.38651 7.68436 8.09291 8.00387C7.80027 8.32242 6.97415 9.09385 6.97415 10.6645C6.97415 12.2362 8.11786 13.7541 8.27905 13.968C8.43641 14.1801 10.4868 17.5066 13.7328 18.7847C16.4289 19.8487 16.9768 19.6386 17.5631 19.5849C18.1483 19.5331 19.4532 18.8144 19.72 18.0689C19.9858 17.3224 19.9867 16.6815 19.9071 16.5491C19.8274 16.4157 19.6144 16.337 19.2949 16.1768C18.9764 16.0175 17.4067 15.2461 17.1131 15.1405C16.8204 15.034 16.6064 14.9803 16.3934 15.2998C16.1824 15.6203 15.5712 16.3361 15.3841 16.5491C15.1979 16.763 15.0118 16.7918 14.6923 16.6316C14.3728 16.4704 13.3442 16.1326 12.1237 15.0446C11.1738 14.2002 10.5338 13.1563 10.3467 12.8358C10.1616 12.5173 10.3295 12.3427 10.4897 12.1834C10.6336 12.0404 10.8063 11.8111 10.9666 11.624C11.1249 11.4379 11.1805 11.3045 11.287 11.0925C11.3926 10.8795 11.3389 10.6924 11.2583 10.5321C11.1796 10.3728 10.5578 8.79545 10.2748 8.1641C10.0349 7.63255 9.78257 7.62007 9.55517 7.61144C9.36999 7.60376 9.15794 7.60376 8.94493 7.60376H8.9459Z" fill="#C2C5CA"/>
</g>
<defs>
<clipPath id="clip0_169_1870">
<rect width="26.8657" height="26.8657" fill="white" transform="translate(0.0206108 0.0874023)"/>
</clipPath>
</defs>
</svg>
