<svg width="20" height="18" viewBox="0 0 20 18" fill="none" xmlns="http://www.w3.org/2000/svg">
<g clip-path="url(#clip0_25_9170)">
<path d="M11.742 0.991943C11.5928 0.992052 11.447 1.03667 11.3233 1.12009C11.1995 1.20351 11.1035 1.32195 11.0475 1.46024C10.9914 1.59853 10.9779 1.7504 11.0086 1.89642C11.0394 2.04244 11.113 2.17598 11.22 2.27994L16.94 7.99994H2.25C2.05109 7.99994 1.86032 8.07896 1.71967 8.21961C1.57902 8.36027 1.5 8.55103 1.5 8.74994C1.5 8.94886 1.57902 9.13962 1.71967 9.28027C1.86032 9.42093 2.05109 9.49994 2.25 9.49994H16.94L11.22 15.2199C11.1463 15.2886 11.0872 15.3714 11.0462 15.4634C11.0052 15.5554 10.9832 15.6547 10.9814 15.7554C10.9796 15.8561 10.9982 15.9562 11.0359 16.0495C11.0736 16.1429 11.1297 16.2278 11.201 16.299C11.2722 16.3702 11.357 16.4263 11.4504 16.4641C11.5438 16.5018 11.6438 16.5203 11.7445 16.5185C11.8452 16.5168 11.9445 16.4947 12.0365 16.4537C12.1285 16.4127 12.2113 16.3536 12.28 16.2799L19.28 9.27994C19.4205 9.13932 19.4993 8.94869 19.4993 8.74994C19.4993 8.55119 19.4205 8.36057 19.28 8.21994L12.28 1.21994C12.2101 1.14787 12.1265 1.09056 12.0341 1.05139C11.9417 1.01223 11.8424 0.992014 11.742 0.991943Z" fill="#212529"/>
</g>
<defs>
<clipPath id="clip0_25_9170">
<rect width="19" height="17" fill="white" transform="translate(0.5 0.5)"/>
</clipPath>
</defs>
</svg>
