<svg width="25" height="22" viewBox="0 0 25 22" fill="none" xmlns="http://www.w3.org/2000/svg">
<g clip-path="url(#clip0_524_920)">
<path d="M6.87897 0.497803C3.35659 0.497803 0.481445 3.3808 0.481445 6.9148C0.481445 9.3048 2.27754 11.5548 4.46755 13.8618C6.65657 16.1688 9.35221 18.5048 11.4993 20.6588C11.663 20.8228 11.8848 20.9149 12.1162 20.9149C12.3475 20.9149 12.5693 20.8228 12.733 20.6588C14.8801 18.5048 17.5757 16.1688 19.7658 13.8618C21.9548 11.5538 23.7509 9.3038 23.7509 6.9148C23.7509 3.3808 20.8757 0.497803 17.3524 0.497803C15.3299 0.497803 13.5687 1.5878 12.1167 3.4368C10.6626 1.5868 8.90244 0.497803 6.87897 0.497803ZM6.87897 2.2478C8.58331 2.2478 10.0014 3.1578 11.3777 5.3398C11.4565 5.46455 11.5655 5.56729 11.6945 5.63848C11.8235 5.70967 11.9684 5.747 12.1157 5.747C12.2629 5.747 12.4078 5.70967 12.5368 5.63848C12.6658 5.56729 12.7748 5.46455 12.8536 5.3398C14.2299 3.1568 15.647 2.2478 17.3514 2.2478C17.963 2.24609 18.5689 2.36564 19.1343 2.59958C19.6997 2.83352 20.2134 3.17724 20.6459 3.61097C21.0783 4.0447 21.421 4.55987 21.6542 5.12687C21.8874 5.69386 22.0065 6.30149 22.0046 6.9148C22.0046 8.3168 20.6015 10.4418 18.5012 12.6558C16.5854 14.6748 14.204 16.7838 12.1157 18.8258C10.0264 16.7828 7.64587 14.6748 5.7301 12.6558C3.62785 10.4428 2.22568 8.3168 2.22568 6.9148C2.22384 6.3014 2.34296 5.6937 2.57621 5.12663C2.80946 4.55957 3.15222 4.04435 3.58478 3.61061C4.01733 3.17687 4.53115 2.83318 5.09667 2.59929C5.66218 2.36541 6.26724 2.24595 6.87897 2.2478Z" fill="#C2C5CA"/>
<path d="M6.87889 2.24782C8.58324 2.24782 10.0014 3.15782 11.3776 5.33982C11.4564 5.46457 11.5654 5.56731 11.6944 5.6385C11.8234 5.70969 11.9683 5.74702 12.1156 5.74702C12.2629 5.74702 12.4077 5.70969 12.5368 5.6385C12.6658 5.56731 12.7748 5.46457 12.8536 5.33982C14.2298 3.15682 15.6469 2.24782 17.3513 2.24782C17.9629 2.24611 18.5689 2.36566 19.1343 2.5996C19.6997 2.83355 20.2134 3.17726 20.6458 3.61099C21.0783 4.04472 21.4209 4.55989 21.6541 5.12689C21.8873 5.69388 22.0064 6.30151 22.0046 6.91482C22.0046 8.31682 20.6014 10.4418 18.5011 12.6558C16.5854 14.6748 14.2039 16.7838 12.1156 18.8258C10.0263 16.7828 7.6458 14.6748 5.73003 12.6558C3.62778 10.4428 2.22561 8.31682 2.22561 6.91482C2.22376 6.30143 2.34289 5.69372 2.57614 5.12666C2.80939 4.55959 3.15215 4.04437 3.5847 3.61063C4.01726 3.1769 4.53108 2.8332 5.09659 2.59931C5.66211 2.36543 6.26717 2.24598 6.87889 2.24782Z" fill="#C2C5CA"/>
</g>
<defs>
<clipPath id="clip0_524_920">
<rect width="23.9346" height="21" fill="white" transform="translate(0.147461 0.414795)"/>
</clipPath>
</defs>
</svg>
