<svg width="13" height="15" viewBox="0 0 13 15" fill="none" xmlns="http://www.w3.org/2000/svg">
<g clip-path="url(#clip0_162_2812)">
<path d="M6.2002 0C4.13545 0 2.4502 1.68525 2.4502 3.75C2.4502 5.81475 4.13545 7.5 6.2002 7.5C8.2642 7.5 9.9502 5.81475 9.9502 3.75C9.9502 1.68525 8.2642 0 6.2002 0ZM6.2002 1.125C7.6567 1.125 8.8252 2.2935 8.8252 3.75C8.8252 5.2065 7.6567 6.375 6.2002 6.375C5.85517 6.37609 5.51334 6.30894 5.19436 6.1774C4.87539 6.04587 4.58558 5.85256 4.34161 5.60858C4.09764 5.36461 3.90433 5.0748 3.77279 4.75583C3.64126 4.43686 3.57411 4.09503 3.5752 3.75C3.5752 2.2935 4.7437 1.125 6.2002 1.125ZM1.8877 9C1.44081 9.00217 1.01285 9.18065 0.696849 9.49665C0.38085 9.81265 0.202364 10.2406 0.200195 10.6875L0.200195 11.1375C0.200195 12.24 0.899195 13.2292 1.9657 13.9095C3.03295 14.5897 4.4917 15 6.2002 15C7.9087 15 9.36744 14.5897 10.4347 13.9095C11.5012 13.2292 12.2002 12.24 12.2002 11.1375V10.6875C12.198 10.2406 12.0195 9.81265 11.7035 9.49665C11.3875 9.18065 10.9596 9.00217 10.5127 9H1.8877ZM1.8877 10.125H10.5127C10.8299 10.125 11.0752 10.3702 11.0752 10.6875V11.1375C11.0752 11.7615 10.6732 12.423 9.82944 12.9608C8.98569 13.5 7.7257 13.875 6.2002 13.875C4.6747 13.875 3.4147 13.4993 2.57095 12.9608C1.7272 12.423 1.3252 11.7615 1.3252 11.1375V10.6875C1.3252 10.3702 1.57045 10.125 1.8877 10.125Z" fill="#232D40"/>
</g>
<defs>
<clipPath id="clip0_162_2812">
<rect width="12" height="15" fill="white" transform="translate(0.200195)"/>
</clipPath>
</defs>
</svg>
