<svg width="20" height="17" viewBox="0 0 20 17" fill="none" xmlns="http://www.w3.org/2000/svg">
<g clip-path="url(#clip0_43_4242)">
<path d="M9.4541 17.1307C9.1416 16.8287 8.71191 16.4276 8.16504 15.9276C7.61816 15.4276 7.05827 14.9172 6.48535 14.3964L5.87598 13.8339C5.54264 13.5318 5.20931 13.2245 4.87598 12.912C4.54264 12.6099 4.20931 12.3 3.87598 11.9823C3.54264 11.6646 3.20931 11.3443 2.87598 11.0214C2.55306 10.6984 2.23535 10.3703 1.92285 10.037C1.52702 9.65157 1.18327 9.22449 0.891602 8.75574C0.599935 8.28699 0.36556 7.78699 0.188477 7.25574L0.172852 7.20886C0.120768 7.01095 0.0791016 6.80261 0.0478516 6.58386C0.0166016 6.36511 0.000976562 6.14115 0.000976562 5.91199C0.000976562 5.06824 0.204102 4.2948 0.610352 3.59167C1.0166 2.88855 1.55306 2.32865 2.21973 1.91199L2.23535 1.89636C2.69368 1.56303 3.2041 1.30001 3.7666 1.1073C4.3291 0.914591 4.92285 0.813028 5.54785 0.802612H5.90723C6.60514 0.865112 7.26139 1.02917 7.87598 1.2948C8.49056 1.56042 9.04785 1.90157 9.54785 2.31824C10.027 1.90157 10.5661 1.56563 11.165 1.31042C11.764 1.05522 12.402 0.891153 13.0791 0.818237H13.1104H13.4697C14.0843 0.828653 14.6755 0.930216 15.2432 1.12292C15.8109 1.31563 16.3239 1.58386 16.7822 1.92761L16.7666 1.91199C17.4541 2.33907 18.001 2.90417 18.4072 3.6073C18.8135 4.31042 19.0166 5.08907 19.0166 5.94324C19.0166 6.16199 19.001 6.38074 18.9697 6.59949C18.9385 6.81824 18.8968 7.03178 18.8447 7.24011V7.20886C18.6572 7.76095 18.4176 8.27397 18.126 8.74792C17.8343 9.22188 17.4958 9.65678 17.1104 10.0526L16.7979 10.3651C16.4229 10.7505 16.0739 11.0995 15.751 11.412C15.4281 11.7245 15.1208 12.0162 14.8291 12.287L12.5479 14.3964L12.1885 14.7089C11.6781 15.1776 11.1833 15.6333 10.7041 16.076C10.2249 16.5188 9.84993 16.8703 9.5791 17.1307V17.1776L9.4541 17.1307ZM5.53223 2.09949C5.05306 2.1099 4.59473 2.19063 4.15723 2.34167C3.71973 2.49272 3.32389 2.70365 2.96973 2.97449L2.98535 2.95886C2.46452 3.26095 2.04785 3.6724 1.73535 4.19324C1.42285 4.71407 1.2666 5.28699 1.2666 5.91199C1.2666 6.07865 1.27962 6.24011 1.30566 6.39636C1.33171 6.55261 1.36556 6.70886 1.40723 6.86511L1.3916 6.83386C1.54785 7.2922 1.74837 7.71407 1.99316 8.09949C2.23796 8.4849 2.52181 8.83386 2.84473 9.14636C3.07389 9.39636 3.31608 9.64636 3.57129 9.89636C3.8265 10.1464 4.0791 10.3964 4.3291 10.6464L5.00098 11.287L6.43848 12.6151L7.42285 13.4901C7.78744 13.8234 8.14941 14.1516 8.50879 14.4745C8.86816 14.7974 9.19889 15.1047 9.50098 15.3964L12.4229 12.7245C12.7562 12.4224 13.0583 12.1464 13.3291 11.8964C13.5999 11.6464 13.8239 11.438 14.001 11.2714L14.3291 10.9432C14.6312 10.6516 14.9411 10.3521 15.2588 10.0448C15.5765 9.73751 15.876 9.43282 16.1572 9.13074C16.4801 8.81824 16.7614 8.46928 17.001 8.08386C17.2406 7.69845 17.4385 7.2922 17.5947 6.86511L17.6104 6.81824C17.652 6.68282 17.6833 6.53699 17.7041 6.38074C17.7249 6.22449 17.7354 6.06303 17.7354 5.89636C17.7354 5.27136 17.5791 4.69845 17.2666 4.17761C16.9541 3.65678 16.5426 3.25053 16.0322 2.95886L16.0166 2.94324C15.6729 2.68282 15.2848 2.47449 14.8525 2.31824C14.4202 2.16199 13.9697 2.08386 13.501 2.08386H13.4854H13.1885C12.6572 2.14636 12.1572 2.27917 11.6885 2.4823C11.2197 2.68542 10.7926 2.94324 10.4072 3.25574C10.3135 3.32865 10.2197 3.40417 10.126 3.4823C10.0322 3.56042 9.93848 3.64115 9.84473 3.72449L9.46973 4.06824L9.42285 4.02136C9.36035 3.93803 9.29264 3.8599 9.21973 3.78699C9.14681 3.71407 9.07389 3.64115 9.00098 3.56824H8.98535L8.81348 3.39636C8.59473 3.2297 8.36816 3.07345 8.13379 2.92761C7.89941 2.78178 7.65202 2.65678 7.3916 2.55261L7.34473 2.53699C7.12598 2.43282 6.889 2.34688 6.63379 2.27917C6.37858 2.21147 6.11556 2.1672 5.84473 2.14636H5.8291L5.53223 2.09949Z" fill="#DD3634"/>
</g>
<defs>
<clipPath id="clip0_43_4242">
<rect width="19.08" height="16" fill="white" transform="matrix(1 0 0 -1 0 16.9901)"/>
</clipPath>
</defs>
</svg>
