<svg width="15" height="21" viewBox="0 0 15 21" fill="none" xmlns="http://www.w3.org/2000/svg">
<g clip-path="url(#clip0_182_1926)">
<path d="M4.85316 0.368164C3.67694 0.369647 2.54932 0.837556 1.71761 1.66927C0.885896 2.50098 0.417987 3.6286 0.416504 4.80482C0.416504 6.07698 0.957309 7.22117 1.81755 8.03098V4.80482C1.81854 4.00003 2.13868 3.22849 2.70776 2.65942C3.27683 2.09034 4.04837 1.7702 4.85316 1.76921C5.65795 1.7702 6.4295 2.09034 6.99857 2.65942C7.56765 3.22849 7.88779 4.00003 7.88877 4.80482V8.03098C8.33068 7.61775 8.68304 7.1182 8.92403 6.56327C9.16503 6.00833 9.28953 5.40983 9.28983 4.80482C9.28834 3.6286 8.82043 2.50098 7.98872 1.66927C7.157 0.837556 6.02938 0.369647 4.85316 0.368164ZM4.85316 2.70325C4.29662 2.70595 3.76365 2.92823 3.37011 3.32177C2.97657 3.71531 2.75429 4.24828 2.75159 4.80482V11.3291C2.64884 11.4785 2.33408 11.9268 1.91376 12.6479C1.67091 13.0626 1.42619 13.5147 1.23378 13.9537C1.04137 14.3927 0.883521 14.7971 0.883521 15.2679C0.883521 16.1972 1.32438 17.0537 1.85211 17.8449C2.38078 18.636 3.02526 19.3561 3.56326 19.9072C3.94448 20.2968 4.41479 20.5877 4.93358 20.7548C5.45237 20.9219 6.00405 20.9603 6.54096 20.8665L10.3518 20.2061C10.9773 20.0971 11.5642 19.8288 12.0558 19.427C12.5475 19.0251 12.9273 18.5034 13.1586 17.9121C13.5742 16.8473 14.0702 15.5574 14.2738 14.8476C14.9024 12.6591 13.4369 10.4548 11.27 9.87569C11.158 9.84563 11.0449 9.82008 10.9309 9.7991L6.95474 9.07803V4.80482C6.95204 4.24828 6.72976 3.71531 6.33622 3.32177C5.94268 2.92823 5.4097 2.70595 4.85316 2.70325ZM4.85316 4.1043C5.24826 4.1043 5.55369 4.40973 5.55369 4.80482V9.66367C5.55368 9.82776 5.61126 9.98665 5.71641 10.1126C5.82157 10.2386 5.9676 10.3237 6.12906 10.353L10.6806 11.1768H10.6769C10.7572 11.1917 10.8357 11.2086 10.9066 11.2282H10.9085C12.3777 11.6214 13.3249 13.0757 12.9279 14.4599C12.7691 15.0101 12.2647 16.3485 11.8537 17.4021C11.7109 17.7695 11.4756 18.0937 11.1705 18.3432C10.8655 18.5928 10.5011 18.7593 10.1127 18.8265L6.30185 19.4869C5.98904 19.5422 5.66654 19.5203 5.36412 19.4231C5.0617 19.3259 4.78755 19.1564 4.56548 18.9293C4.06577 18.4165 3.47079 17.7431 3.01779 17.0659C2.56572 16.3878 2.28457 15.7022 2.28457 15.2679C2.28457 15.2062 2.35929 14.8765 2.51808 14.515C2.67687 14.1545 2.89823 13.7398 3.1224 13.3531C3.5726 12.5816 4.02561 11.9334 4.02561 11.9334C4.10816 11.8157 4.1525 11.6755 4.15264 11.5317V4.80482C4.15264 4.40973 4.45807 4.1043 4.85316 4.1043Z" fill="white"/>
</g>
<defs>
<clipPath id="clip0_182_1926">
<rect width="14.0105" height="20.5487" fill="white" transform="translate(0.416626 0.368164)"/>
</clipPath>
</defs>
</svg>
