<svg width="22" height="18" viewBox="0 0 22 18" fill="none" xmlns="http://www.w3.org/2000/svg">
<g clip-path="url(#clip0_25_5556)">
<path d="M1.75 0C1.55109 0 1.36032 0.0790176 1.21967 0.21967C1.07902 0.360322 1 0.551088 1 0.75C1 0.948912 1.07902 1.13968 1.21967 1.28033C1.36032 1.42098 1.55109 1.5 1.75 1.5H3.128C3.492 1.5 3.795 1.751 3.864 2.11L4.014 2.89L5.626 11.358C5.76914 12.1004 6.16594 12.7699 6.74846 13.2519C7.33097 13.7339 8.06294 13.9984 8.819 14H18.181C18.9371 13.9986 19.6692 13.7342 20.2517 13.2521C20.8343 12.7701 21.231 12.1005 21.374 11.358L22.986 2.891C23.0064 2.78262 23.0027 2.67109 22.9752 2.56431C22.9476 2.45752 22.897 2.3581 22.8267 2.27308C22.7565 2.18806 22.6684 2.11952 22.5688 2.07233C22.4691 2.02514 22.3603 2.00045 22.25 2H5.37L5.338 1.83C5.2388 1.31611 4.96416 0.852639 4.56104 0.518838C4.15793 0.185037 3.65138 0.00163823 3.128 0L1.75 0ZM5.656 3.5H21.344L19.9 11.078C19.8251 11.4789 19.6119 11.8408 19.2976 12.1006C18.9833 12.3604 18.5878 12.5018 18.18 12.5H8.82C7.974 12.5 7.258 11.908 7.1 11.078L5.656 3.5ZM10 15C9.60218 15 9.22064 15.158 8.93934 15.4393C8.65804 15.7206 8.5 16.1022 8.5 16.5C8.5 16.8978 8.65804 17.2794 8.93934 17.5607C9.22064 17.842 9.60218 18 10 18C10.3978 18 10.7794 17.842 11.0607 17.5607C11.342 17.2794 11.5 16.8978 11.5 16.5C11.5 16.1022 11.342 15.7206 11.0607 15.4393C10.7794 15.158 10.3978 15 10 15ZM17 15C16.6022 15 16.2206 15.158 15.9393 15.4393C15.658 15.7206 15.5 16.1022 15.5 16.5C15.5 16.8978 15.658 17.2794 15.9393 17.5607C16.2206 17.842 16.6022 18 17 18C17.3978 18 17.7794 17.842 18.0607 17.5607C18.342 17.2794 18.5 16.8978 18.5 16.5C18.5 16.1022 18.342 15.7206 18.0607 15.4393C17.7794 15.158 17.3978 15 17 15Z" fill="white"/>
</g>
<defs>
<clipPath id="clip0_25_5556">
<rect width="23" height="18" fill="white"/>
</clipPath>
</defs>
</svg>
