<svg width="15" height="16" viewBox="0 0 15 16" fill="none" xmlns="http://www.w3.org/2000/svg">
<path d="M7.5 0.0898467C7.021 0.0898467 6.543 0.245847 6.147 0.556847L1.19 4.46185C0.81918 4.75445 0.519466 5.12725 0.313363 5.55227C0.10726 5.9773 0.000124458 6.44349 0 6.91585V14.4528C0 15.2508 0.66 15.9118 1.458 15.9118H13.542C14.34 15.9118 15 15.2518 15 14.4528V6.91685C15 5.95985 14.56 5.05485 13.809 4.46285L8.853 0.556847C8.4673 0.253549 7.99067 0.0890345 7.5 0.0898467ZM7.5 1.33685C7.704 1.33685 7.908 1.40385 8.08 1.53885L13.036 5.44385C13.486 5.79985 13.75 6.34085 13.75 6.91585V14.4528C13.7514 14.4806 13.747 14.5083 13.7371 14.5342C13.7272 14.5602 13.7119 14.5838 13.6923 14.6034C13.6727 14.6231 13.6492 14.6385 13.6233 14.6486C13.5975 14.6586 13.5697 14.6631 13.542 14.6618H12.5V7.37485C12.5 6.57685 11.84 5.91685 11.042 5.91685H3.958C3.16 5.91685 2.5 6.57685 2.5 7.37485V14.6618H1.458C1.43026 14.6631 1.40255 14.6586 1.37666 14.6486C1.35077 14.6385 1.32728 14.6231 1.30769 14.6034C1.28809 14.5838 1.27284 14.5602 1.26291 14.5342C1.25297 14.5083 1.24857 14.4806 1.25 14.4528V6.91685C1.25 6.34185 1.513 5.79985 1.965 5.44385L6.92 1.53885C7.08507 1.40813 7.28944 1.33695 7.5 1.33685ZM3.958 7.16685H11.042C11.165 7.16685 11.25 7.25185 11.25 7.37485V8.41685H3.75V7.37485C3.75 7.25185 3.835 7.16685 3.958 7.16685ZM3.75 9.66685H11.25V14.6618H3.75V9.66685Z" fill="#40B659"/>
</svg>
