<svg width="26" height="26" viewBox="0 0 26 26" fill="none" xmlns="http://www.w3.org/2000/svg">
<g clip-path="url(#clip0_169_1860)">
<path d="M8.60917 0.88501C4.55821 0.88501 1.25278 4.19044 1.25278 8.2414V17.8363C1.25278 21.8872 4.55821 25.1927 8.60917 25.1927H18.204C22.255 25.1927 25.5604 21.8872 25.5604 17.8363V8.2414C25.5604 4.18948 22.255 0.88501 18.204 0.88501H8.60917ZM8.60917 2.80398H18.204C18.9186 2.80209 19.6265 2.94143 20.2871 3.21402C20.9477 3.4866 21.5478 3.88704 22.0531 4.39233C22.5584 4.89762 22.9588 5.49779 23.2314 6.15835C23.504 6.8189 23.6434 7.52682 23.6415 8.2414V17.8363C23.6432 18.5508 23.5038 19.2587 23.2312 19.9192C22.9585 20.5797 22.5581 21.1798 22.0528 21.6851C21.5476 22.1903 20.9474 22.5908 20.2869 22.8634C19.6265 23.136 18.9186 23.2755 18.204 23.2737H8.60917C7.89458 23.2756 7.18667 23.1362 6.52611 22.8637C5.86556 22.5911 5.26539 22.1906 4.7601 21.6853C4.25481 21.1801 3.85437 20.5799 3.58178 19.9193C3.3092 19.2588 3.16985 18.5509 3.17175 17.8363V8.2414C3.16973 7.52678 3.30899 6.81881 3.58152 6.1582C3.85406 5.49758 4.2545 4.89736 4.75982 4.39205C5.26513 3.88673 5.86535 3.48629 6.52596 3.21376C7.18658 2.94122 7.89455 2.80196 8.60917 2.80398ZM19.8035 5.36294C19.4643 5.36281 19.1389 5.49744 18.899 5.73721C18.659 5.97698 18.5242 6.30224 18.524 6.64146C18.5239 6.98067 18.6585 7.30604 18.8983 7.54598C19.1381 7.78593 19.4633 7.9208 19.8026 7.92093C20.1418 7.92093 20.4671 7.78618 20.7069 7.54632C20.9468 7.30646 21.0815 6.98115 21.0815 6.64194C21.0815 6.30272 20.9468 5.97741 20.7069 5.73755C20.4671 5.49769 20.1427 5.36294 19.8035 5.36294ZM13.4066 6.64194C9.88529 6.64194 7.0097 9.51752 7.0097 13.0388C7.0097 16.5602 9.88529 19.4357 13.4066 19.4357C16.9279 19.4357 19.8035 16.5602 19.8035 13.0388C19.8035 9.51752 16.9279 6.64194 13.4066 6.64194ZM13.4066 8.56091C13.9952 8.55901 14.5783 8.67354 15.1225 8.8979C15.6666 9.12226 16.161 9.45203 16.5772 9.86823C16.9934 10.2844 17.3232 10.7788 17.5475 11.323C17.7719 11.8671 17.8864 12.4503 17.8845 13.0388C17.8864 13.6274 17.7719 14.2106 17.5475 14.7547C17.3232 15.2989 16.9934 15.7933 16.5772 16.2095C16.161 16.6256 15.6666 16.9554 15.1225 17.1798C14.5783 17.4041 13.9952 17.5187 13.4066 17.5168C12.818 17.5187 12.2349 17.4041 11.6907 17.1798C11.1466 16.9554 10.6522 16.6256 10.236 16.2095C9.8198 15.7933 9.49003 15.2989 9.26567 14.7547C9.0413 14.2106 8.92678 13.6274 8.92868 13.0388C8.92678 12.4503 9.0413 11.8671 9.26567 11.323C9.49003 10.7788 9.8198 10.2844 10.236 9.86823C10.6522 9.45203 11.1466 9.12226 11.6907 8.8979C12.2349 8.67354 12.818 8.55901 13.4066 8.56091Z" fill="#C2C5CA"/>
</g>
<defs>
<clipPath id="clip0_169_1860">
<rect width="24.9467" height="24.9467" fill="white" transform="translate(0.935287 0.56543)"/>
</clipPath>
</defs>
</svg>
