<svg width="24" height="24" viewBox="0 0 24 24" fill="none" xmlns="http://www.w3.org/2000/svg">
<g clip-path="url(#clip0_169_1880)">
<path d="M4.49344 0.210938C3.56146 0.214727 2.66873 0.586635 2.00971 1.24565C1.3507 1.90467 0.978788 2.7974 0.974998 3.72938L0.974998 19.7202C0.978788 20.6522 1.3507 21.5449 2.00971 22.2039C2.66873 22.8629 3.56146 23.2349 4.49344 23.2386H20.4843C21.4162 23.2349 22.309 22.8629 22.968 22.2039C23.627 21.5449 23.9989 20.6522 24.0027 19.7202V3.72938C23.9989 2.7974 23.627 1.90467 22.968 1.24565C22.309 0.586635 21.4162 0.214727 20.4843 0.210938L4.49344 0.210938ZM4.49344 2.12991H20.4843C21.3795 2.12991 22.0837 2.83514 22.0837 3.72938V19.7202C22.0837 20.6154 21.3785 21.3197 20.4843 21.3197H4.49344C4.28286 21.3216 4.07401 21.2815 3.87909 21.2018C3.68416 21.1221 3.50707 21.0044 3.35817 20.8555C3.20926 20.7066 3.09151 20.5295 3.01181 20.3346C2.93211 20.1396 2.89205 19.9308 2.89397 19.7202V3.72938C2.89397 2.83514 3.5992 2.12991 4.49344 2.12991ZM14.0471 4.70326C13.8023 4.71377 13.5708 4.81753 13.4001 4.99325C13.2293 5.16898 13.1323 5.40337 13.1288 5.64835V14.2837C13.1307 14.6203 13.0658 14.9538 12.9379 15.2651C12.81 15.5764 12.6215 15.8592 12.3835 16.0971C12.1455 16.335 11.8626 16.5234 11.5513 16.6512C11.24 16.779 10.9064 16.8438 10.5699 16.8417C10.2333 16.8438 9.89975 16.779 9.58842 16.6512C9.2771 16.5234 8.99424 16.335 8.75622 16.0971C8.51821 15.8592 8.32977 15.5764 8.20184 15.2651C8.0739 14.9538 8.00901 14.6203 8.01092 14.2837C8.00888 13.9471 8.07368 13.6135 8.20156 13.3021C8.32944 12.9907 8.51785 12.7078 8.75588 12.4697C8.99391 12.2317 9.27681 12.0433 9.5882 11.9154C9.89959 11.7875 10.2333 11.7228 10.5699 11.7248C10.8243 11.7248 11.0684 11.6237 11.2483 11.4438C11.4283 11.2638 11.5294 11.0198 11.5294 10.7653C11.5294 10.5108 11.4283 10.2668 11.2483 10.0868C11.0684 9.9069 10.8243 9.80581 10.5699 9.80581C9.38342 9.80961 8.24665 10.2826 7.40769 11.1216C6.56874 11.9605 6.09574 13.0973 6.09195 14.2837C6.09599 15.47 6.56911 16.6066 7.40803 17.4453C8.24696 18.2841 9.38359 18.7569 10.5699 18.7607C11.7562 18.7569 12.8928 18.2841 13.7317 17.4453C14.5706 16.6066 15.0438 15.47 15.0478 14.2837V9.38076C15.8586 10.0083 16.8277 10.4458 17.9263 10.4458C18.1807 10.4458 18.4248 10.3447 18.6047 10.1648C18.7847 9.98483 18.8858 9.74078 18.8858 9.4863C18.8858 9.23183 18.7847 8.98778 18.6047 8.80784C18.4248 8.62791 18.1807 8.52682 17.9263 8.52682C16.3239 8.52682 15.0478 7.24974 15.0478 5.64835C15.0459 5.52006 15.0182 5.39345 14.9666 5.27601C14.9149 5.15857 14.8402 5.05268 14.7469 4.96458C14.6536 4.87648 14.5436 4.80797 14.4234 4.76309C14.3032 4.7182 14.1753 4.69786 14.0471 4.70326Z" fill="#C2C5CA"/>
</g>
<defs>
<clipPath id="clip0_169_1880">
<rect width="23.0277" height="23.0277" fill="white" transform="translate(0.974693 0.210693)"/>
</clipPath>
</defs>
</svg>
