<svg width="20" height="18" viewBox="0 0 20 18" fill="none" xmlns="http://www.w3.org/2000/svg">
<g clip-path="url(#clip0_25_9164)">
<path d="M8.25832 0.991943C8.40754 0.992052 8.55333 1.03667 8.67706 1.12009C8.80078 1.20351 8.89681 1.32195 8.95285 1.46024C9.0089 1.59853 9.02242 1.7504 8.99169 1.89642C8.96095 2.04244 8.88736 2.17598 8.78032 2.27994L3.06032 7.99994H17.7503C17.9492 7.99994 18.14 8.07896 18.2806 8.21961C18.4213 8.36027 18.5003 8.55103 18.5003 8.74994C18.5003 8.94886 18.4213 9.13962 18.2806 9.28027C18.14 9.42093 17.9492 9.49994 17.7503 9.49994H3.06032L8.78032 15.2199C8.854 15.2886 8.91311 15.3714 8.9541 15.4634C8.99509 15.5554 9.01713 15.6547 9.01891 15.7554C9.02069 15.8561 9.00216 15.9562 8.96444 16.0495C8.92672 16.1429 8.87057 16.2278 8.79935 16.299C8.72814 16.3702 8.6433 16.4263 8.54991 16.4641C8.45653 16.5018 8.3565 16.5203 8.25579 16.5185C8.15509 16.5168 8.05578 16.4947 7.96378 16.4537C7.87178 16.4127 7.78898 16.3536 7.72032 16.2799L0.720317 9.27994C0.579866 9.13932 0.500977 8.94869 0.500977 8.74994C0.500977 8.55119 0.579866 8.36057 0.720317 8.21994L7.72032 1.21994C7.79017 1.14787 7.87379 1.09056 7.9662 1.05139C8.05861 1.01223 8.15795 0.992014 8.25832 0.991943Z" fill="#212529"/>
</g>
<defs>
<clipPath id="clip0_25_9164">
<rect width="19" height="17" fill="white" transform="translate(0.5 0.5)"/>
</clipPath>
</defs>
</svg>
