<svg width="17" height="15" viewBox="0 0 17 15" fill="none" xmlns="http://www.w3.org/2000/svg">
<g clip-path="url(#clip0_162_2807)">
<path d="M4.58236 0.416626C3.36753 0.419048 2.20314 0.902712 1.34413 1.76173C0.485109 2.62075 0.00144584 3.78513 -0.000976562 4.99996C-0.000976563 6.70663 1.28569 8.31329 2.85402 9.96163C4.42236 11.61 6.35236 13.2783 7.89069 14.8166C8.00788 14.9337 8.16673 14.9994 8.33236 14.9994C8.49798 14.9994 8.65684 14.9337 8.77402 14.8166C10.3124 13.2791 12.2424 11.61 13.8107 9.96163C15.379 8.31329 16.6657 6.70663 16.6657 4.99996C16.6657 2.47579 14.6065 0.416626 12.0824 0.416626C10.634 0.416626 9.37236 1.19413 8.33236 2.51579C7.29236 1.19413 6.03069 0.416626 4.58236 0.416626ZM4.58236 1.66663C5.80236 1.66663 6.81819 2.31663 7.80402 3.87496C7.86037 3.96412 7.93837 4.03757 8.03075 4.08847C8.12313 4.13937 8.22688 4.16606 8.33236 4.16606C8.43783 4.16606 8.54159 4.13937 8.63397 4.08847C8.72635 4.03757 8.80434 3.96412 8.86069 3.87496C9.84652 2.31663 10.8624 1.66663 12.0824 1.66663C13.9307 1.66663 15.4157 3.15163 15.4157 4.99996C15.4157 6.00163 14.4107 7.51996 12.9057 9.09996C11.534 10.5425 9.82819 12.0491 8.33236 13.5075C6.83652 12.0491 5.13069 10.5425 3.75902 9.10079C2.25402 7.51996 1.24902 5.99996 1.24902 4.99996C1.24902 3.15163 2.73402 1.66663 4.58236 1.66663Z" fill="#232D40"/>
</g>
<defs>
<clipPath id="clip0_162_2807">
<rect width="16.6667" height="15" fill="white" transform="translate(-0.000732422)"/>
</clipPath>
</defs>
</svg>
