<svg width="24" height="26" viewBox="0 0 24 26" fill="none" xmlns="http://www.w3.org/2000/svg">
<g clip-path="url(#clip0_169_1865)">
<path d="M4.46344 0.72705C4.43387 0.727135 4.40471 0.734054 4.37825 0.747269C4.35179 0.760484 4.32874 0.779636 4.31091 0.80323C4.29307 0.826824 4.28093 0.854222 4.27544 0.883283C4.26994 0.912344 4.27123 0.942282 4.27922 0.97076L5.98711 7.13451V9.8892C5.98711 10.0657 6.13103 10.2097 6.30662 10.2097H7.2047C7.38124 10.2097 7.52517 10.0657 7.52517 9.8892V7.13547L9.25512 0.9698C9.26313 0.941245 9.26441 0.911221 9.25886 0.882088C9.25331 0.852954 9.24109 0.825503 9.22315 0.801889C9.2052 0.778275 9.18203 0.759141 9.15545 0.74599C9.12887 0.732838 9.0996 0.726027 9.06994 0.726091H8.03274C7.96022 0.725353 7.88967 0.749682 7.83303 0.794963C7.77638 0.840245 7.73711 0.9037 7.72186 0.974598C7.52133 1.9053 6.82666 5.15029 6.78156 5.45924H6.73455C6.67026 5.03035 6.00822 1.89091 5.81248 0.976517C5.79746 0.905604 5.75841 0.842053 5.70194 0.7966C5.64548 0.751147 5.57505 0.72658 5.50257 0.72705H4.46344ZM11.1779 3.14496C10.6569 3.14496 10.2357 3.24858 9.91621 3.45679C9.59478 3.66308 9.35971 3.99411 9.20907 4.44506C9.05843 4.89794 8.98263 5.4957 8.98263 6.24123V7.24677C8.98263 7.98461 9.04979 8.57662 9.18124 9.02182C9.31365 9.46606 9.53625 9.79421 9.84809 10.0043C10.1618 10.2154 10.5926 10.321 11.1434 10.321C11.6778 10.321 12.1029 10.2183 12.4157 10.0101C12.7285 9.80284 12.9559 9.47566 13.094 9.02758C13.2332 8.57854 13.3032 7.98557 13.3032 7.24677V6.24123C13.3032 5.4957 13.2312 4.8989 13.0883 4.44986C12.9444 4.00178 12.7208 3.67268 12.4109 3.46159C12.1019 3.2505 11.6903 3.14496 11.1779 3.14496ZM14.4325 3.28504C14.3905 3.28504 14.3489 3.29334 14.31 3.30946C14.2712 3.32557 14.2359 3.34919 14.2063 3.37897C14.1766 3.40874 14.1531 3.44407 14.1371 3.48295C14.1211 3.52182 14.1129 3.56347 14.113 3.60551V8.4538C14.113 9.09474 14.2234 9.56777 14.4412 9.86809C14.6599 10.1694 14.9996 10.319 15.4592 10.319C16.1231 10.319 16.6201 9.99954 16.9521 9.35956H16.9857L17.0788 9.93717C17.0909 10.0124 17.1294 10.0809 17.1874 10.1303C17.2455 10.1797 17.3192 10.2068 17.3954 10.2068H18.0239C18.2004 10.2068 18.3444 10.0629 18.3444 9.88728V3.60551C18.3444 3.52052 18.3106 3.43901 18.2505 3.37891C18.1904 3.31881 18.1089 3.28504 18.0239 3.28504H17.1028C17.0607 3.28504 17.0191 3.29334 16.9803 3.30946C16.9415 3.32557 16.9062 3.34919 16.8765 3.37897C16.8468 3.40874 16.8233 3.44407 16.8073 3.48295C16.7913 3.52182 16.7831 3.56347 16.7833 3.60551V8.78387C16.7224 8.91339 16.6263 9.02313 16.506 9.1005C16.3918 9.18067 16.2559 9.22417 16.1164 9.22523C15.9571 9.22523 15.8439 9.15999 15.7758 9.02758C15.7067 8.89517 15.6731 8.6764 15.6731 8.36649V3.60551C15.6733 3.56347 15.6651 3.52182 15.6491 3.48295C15.6331 3.44407 15.6096 3.40874 15.5799 3.37897C15.5502 3.34919 15.5149 3.32557 15.4761 3.30946C15.4373 3.29334 15.3957 3.28504 15.3536 3.28504H14.4325ZM11.1434 4.21959C11.3612 4.21959 11.5157 4.3328 11.6011 4.56212C11.6884 4.79144 11.7316 5.15509 11.7316 5.65306V7.81191C11.7316 8.32523 11.6884 8.69464 11.603 8.92012C11.5166 9.14559 11.3612 9.25881 11.1444 9.25977C10.9256 9.25977 10.775 9.14559 10.6915 8.92012C10.608 8.69368 10.5677 8.32331 10.5677 7.81191V5.6521C10.5677 5.15509 10.6128 4.79144 10.6982 4.56116C10.7845 4.3328 10.9313 4.21863 11.1424 4.21863L11.1434 4.21959ZM3.95204 11.6009C3.02005 11.6047 2.12732 11.9766 1.46831 12.6356C0.809291 13.2947 0.437383 14.1874 0.433594 15.1194L0.433594 22.7953C0.437635 23.7271 0.809655 24.6196 1.46864 25.2784C2.12763 25.9372 3.02022 26.309 3.95204 26.3127H19.9429C20.8747 26.309 21.7673 25.9372 22.4262 25.2784C23.0852 24.6196 23.4573 23.7271 23.4613 22.7953V15.1194C23.4575 14.1874 23.0856 13.2947 22.4266 12.6356C21.7676 11.9766 20.8748 11.6047 19.9429 11.6009H3.95204ZM3.95204 13.5199H19.9429C20.8381 13.5199 21.5423 14.2251 21.5423 15.1194V22.7953C21.5423 23.6895 20.8371 24.3938 19.9429 24.3938H3.95204C3.74154 24.3957 3.53277 24.3557 3.33791 24.276C3.14305 24.1964 2.966 24.0787 2.81711 23.9299C2.66821 23.7811 2.55045 23.6041 2.47069 23.4093C2.39093 23.2145 2.35078 23.0058 2.35257 22.7953V15.1194C2.35257 14.2251 3.05779 13.5199 3.95204 13.5199ZM4.59105 14.7989C4.54901 14.7989 4.50739 14.8072 4.46856 14.8233C4.42973 14.8394 4.39447 14.863 4.36479 14.8928C4.33511 14.9226 4.31159 14.9579 4.29559 14.9968C4.27959 15.0357 4.27142 15.0773 4.27154 15.1194V15.7584C4.27154 15.9349 4.41547 16.0789 4.59105 16.0789H5.55054V22.4642C5.55054 22.6408 5.69446 22.7838 5.87101 22.7838H6.51003C6.68657 22.7838 6.8305 22.6398 6.8305 22.4642V16.0789H7.78999C7.96653 16.0789 8.1095 15.9349 8.1095 15.7584V15.1194C8.10962 15.0773 8.10145 15.0357 8.08545 14.9968C8.06945 14.9579 8.04593 14.9226 8.01625 14.8928C7.98657 14.863 7.95131 14.8394 7.91248 14.8233C7.87365 14.8072 7.83203 14.7989 7.78999 14.7989H4.59105ZM12.267 14.7989C12.2249 14.7989 12.1833 14.8072 12.1445 14.8233C12.1056 14.8394 12.0704 14.863 12.0407 14.8928C12.011 14.9226 11.9875 14.9579 11.9715 14.9968C11.9555 15.0357 11.9473 15.0773 11.9474 15.1194V22.4642C11.9474 22.6408 12.0914 22.7838 12.267 22.7838H12.7995C12.8712 22.7838 12.9409 22.7597 12.9973 22.7153C13.0537 22.6709 13.0935 22.6089 13.1103 22.5391L13.1804 22.2512H13.2082C13.3061 22.4422 13.4529 22.5928 13.6496 22.7022C13.8453 22.8125 14.0641 22.8672 14.3039 22.8672C14.7328 22.8672 15.0476 22.6696 15.251 22.2743C15.4534 21.878 15.5551 21.2591 15.5551 20.4186V19.5263C15.5551 18.8949 15.5167 18.4018 15.44 18.0448C15.3642 17.6898 15.2385 17.4308 15.0687 17.2715C14.8979 17.1122 14.6618 17.0316 14.3615 17.0316C14.1274 17.0316 13.9106 17.0988 13.7081 17.2302C13.5057 17.3626 13.3483 17.5344 13.238 17.7484H13.2264V15.1194C13.2266 15.0773 13.2184 15.0357 13.2024 14.9968C13.1864 14.9579 13.1629 14.9226 13.1332 14.8928C13.1035 14.863 13.0683 14.8394 13.0294 14.8233C12.9906 14.8072 12.949 14.7989 12.9069 14.7989H12.267ZM17.8454 17.0355C17.2141 17.0355 16.7679 17.2302 16.5079 17.6208C16.2469 18.0103 16.1164 18.6292 16.1164 19.4754V20.4599C16.1164 21.2822 16.2402 21.8895 16.4925 22.2829C16.7449 22.6763 17.1834 22.8711 17.809 22.8711C18.3309 22.8711 18.7339 22.7435 19.0198 22.4854C19.2837 22.2484 19.4257 21.8972 19.4458 21.4347C19.4456 21.3496 19.4116 21.2681 19.3514 21.208C19.2911 21.148 19.2095 21.1142 19.1244 21.1142H18.6389C18.5537 21.1142 18.4718 21.1479 18.4113 21.2079C18.3507 21.2679 18.3163 21.3495 18.3156 21.4347C18.3177 21.5549 18.2959 21.6743 18.2513 21.7859C18.1745 21.9375 18.0268 22.0066 17.8368 22.0066C17.6957 22.0066 17.5912 21.9663 17.524 21.8828C17.4568 21.8012 17.4146 21.6688 17.3916 21.4884C17.3657 21.2174 17.3552 20.9451 17.3599 20.6729V20.3879H19.1638C19.3403 20.3879 19.4833 20.244 19.4833 20.0674V19.4188C19.4833 18.8239 19.4353 18.3576 19.3413 18.0199C19.2453 17.6841 19.0812 17.4346 18.849 17.2753C18.6149 17.1161 18.2801 17.0355 17.8454 17.0355ZM10.3566 17.141C10.2719 17.141 10.1906 17.1747 10.1307 17.2346C10.0708 17.2945 10.0371 17.3758 10.0371 17.4605V21.6228C9.9869 21.7283 9.90854 21.818 9.81067 21.8818C9.71804 21.9475 9.60757 21.9833 9.49404 21.9845C9.36355 21.9845 9.27239 21.9308 9.21578 21.8233C9.16109 21.7178 9.13423 21.5355 9.13423 21.285V17.4634C9.13423 17.3784 9.10046 17.2969 9.04037 17.2368C8.98027 17.1767 8.89875 17.1429 8.81376 17.1429H8.18242C8.09742 17.1429 8.01591 17.1767 7.95581 17.2368C7.89571 17.2969 7.86195 17.3784 7.86195 17.4634V21.3589C7.86195 21.879 7.95118 22.2637 8.12964 22.5093C8.30811 22.755 8.58252 22.8778 8.95768 22.8778C9.49787 22.8778 9.90182 22.6168 10.1724 22.0939H10.2012L10.2674 22.5161C10.2923 22.6696 10.4257 22.7838 10.584 22.7838H10.988C11.1645 22.7838 11.3075 22.6398 11.3075 22.4642V17.4605C11.3076 17.4185 11.2994 17.3768 11.2834 17.3379C11.2674 17.2991 11.2439 17.2637 11.2142 17.234C11.1845 17.2042 11.1493 17.1806 11.1105 17.1645C11.0716 17.1483 11.03 17.14 10.988 17.14L10.3566 17.141ZM17.8186 17.8923C17.9548 17.8923 18.0536 17.9307 18.1179 18.0074C18.1822 18.0842 18.2254 18.2156 18.2494 18.4037C18.2733 18.5908 18.2849 18.8642 18.2849 19.2269V19.6318H17.357V19.2269C17.357 18.8594 17.3676 18.5841 17.3897 18.4037C17.4098 18.2223 17.452 18.0928 17.5173 18.0122C17.5816 17.9335 17.6833 17.8923 17.8186 17.8923ZM13.7887 17.9355C13.8476 17.9331 13.9061 17.9459 13.9587 17.9727C14.0113 17.9994 14.0561 18.0391 14.089 18.088C14.1581 18.1878 14.208 18.3596 14.2349 18.5985C14.2636 18.8383 14.2771 19.179 14.2771 19.6203V20.3467C14.2771 20.7573 14.2589 21.0797 14.2253 21.3119C14.1926 21.546 14.136 21.712 14.0564 21.8108C14.0178 21.8587 13.9686 21.8968 13.9126 21.9222C13.8566 21.9475 13.7954 21.9593 13.734 21.9567C13.6327 21.9565 13.533 21.9308 13.4442 21.8818C13.3522 21.8304 13.2767 21.7539 13.2264 21.6612V18.4584C13.2643 18.3148 13.3413 18.1845 13.449 18.0823C13.5385 17.9905 13.6606 17.9377 13.7887 17.9355Z" fill="#C2C5CA"/>
</g>
<defs>
<clipPath id="clip0_169_1865">
<rect width="23.0277" height="26.8657" fill="white" transform="translate(0.43335 0.0874023)"/>
</clipPath>
</defs>
</svg>
