<svg width="28" height="28" viewBox="0 0 28 28" fill="none" xmlns="http://www.w3.org/2000/svg">
<g clip-path="url(#clip0_169_1855)">
<path d="M13.9128 0.750488C6.60669 0.750488 0.66304 6.69414 0.66304 14.0002C0.66304 21.3063 6.60669 27.25 13.9128 27.25C21.2189 27.25 27.1625 21.3063 27.1625 14.0002C27.1625 6.69414 21.2189 0.750488 13.9128 0.750488ZM13.9128 2.738C15.3923 2.73604 16.8577 3.026 18.225 3.59129C19.5922 4.15657 20.8346 4.98607 21.8808 6.03225C22.9269 7.07844 23.7564 8.32076 24.3217 9.68804C24.887 11.0553 25.177 12.5207 25.175 14.0002C25.175 19.5523 21.1781 24.1405 15.9003 25.0776V17.3124H18.3022C18.6361 17.3124 18.9183 17.064 18.9591 16.7321L19.2075 14.7445C19.2192 14.6514 19.211 14.5568 19.1833 14.4671C19.1556 14.3773 19.1092 14.2945 19.0471 14.2241C18.9849 14.1537 18.9085 14.0974 18.8229 14.0588C18.7374 14.0201 18.6445 14.0002 18.5506 14.0002H15.9003V11.6818C15.9003 10.9504 16.4946 10.3561 17.225 10.3561H18.5506C18.7261 10.3559 18.8943 10.286 19.0183 10.162C19.1424 10.0379 19.2122 9.86973 19.2125 9.69428V7.45834C19.2126 7.293 19.1509 7.1336 19.0395 7.01148C18.928 6.88936 18.7749 6.81338 18.6103 6.79848C18.5705 6.79451 17.6364 6.71302 16.4528 6.71302C13.5332 6.71302 11.9253 8.44513 11.9253 11.5934V14.0002H9.27492C9.18792 14.0002 9.10178 14.0174 9.02142 14.0507C8.94105 14.084 8.86805 14.1329 8.80658 14.1944C8.74511 14.256 8.69638 14.3291 8.66318 14.4095C8.62997 14.4899 8.61295 14.5761 8.61308 14.6631V16.6506C8.61308 17.0163 8.90922 17.3124 9.27492 17.3124H11.9253V25.0776C6.64743 24.1405 2.65055 19.5523 2.65055 14.0002C2.64859 12.5207 2.93856 11.0553 3.50384 9.68804C4.06912 8.32076 4.89862 7.07844 5.9448 6.03225C6.99099 4.98607 8.23331 4.15657 9.60059 3.59129C10.9679 3.026 12.4332 2.73604 13.9128 2.738Z" fill="#C2C5CA"/>
</g>
<defs>
<clipPath id="clip0_169_1855">
<rect width="27.8251" height="27.8251" fill="white" transform="translate(0 0.0874023)"/>
</clipPath>
</defs>
</svg>
