<svg width="39" height="39" viewBox="0 0 39 39" fill="none" xmlns="http://www.w3.org/2000/svg">
<path d="M28.5414 23.9402V23.0775C28.5414 20.5604 27.5415 18.1465 25.7617 16.3667C23.9819 14.5869 21.568 13.587 19.0509 13.587M19.0509 13.587C16.5339 13.587 14.12 14.5869 12.3401 16.3667C10.5603 18.1465 9.56044 20.5604 9.56044 23.0775V23.9402M19.0509 13.587V10.1359M30.267 23.9402H7.8349L8.38707 25.7866C8.59926 26.5002 9.03653 27.1261 9.63362 27.5708C10.2307 28.0155 10.9556 28.2552 11.7001 28.2541H26.4018C27.1463 28.2552 27.8712 28.0155 28.4682 27.5708C29.0653 27.1261 29.5026 26.5002 29.7148 25.7866L30.267 23.9402Z" stroke="#0D2B3D" stroke-width="2.5" stroke-linecap="square" stroke-linejoin="round"/>
</svg>
