<svg width="45" height="32" viewBox="0 0 45 32" fill="none" xmlns="http://www.w3.org/2000/svg">
<g clip-path="url(#clip0_43_4310)">
<path d="M18.9353 31.0057V28.8193H42.7155L42.7731 28.5399V2.26571L42.4937 2.20882H2.25716L2.20028 2.48681V28.7617L2.47826 28.8193H10.8623V31.0057H2.47825C1.11859 31.0057 0.0117188 29.8995 0.0117188 28.5398V2.48679C0.0117188 1.12715 1.1186 0.0202637 2.47825 0.0202637H42.4937C43.8534 0.0202637 44.9595 1.12715 44.9595 2.48679V28.5399C44.9595 29.8995 43.8534 31.0057 42.4937 31.0057H18.9353Z" fill="#B47F68"/>
<path d="M13.6124 19.5027C12.9965 19.8355 12.3074 20.0096 11.6074 20.0093C10.8414 20.061 10.0877 19.7963 9.52221 19.2769C9.01632 18.7288 8.75441 17.9989 8.7964 17.2542V15.0267H7.85547V12.9075H8.7957V10.9629H11.5366V12.9075H13.2516V15.0344H11.5342V16.9294C11.4888 17.2992 11.7509 17.6361 12.1205 17.683C12.1834 17.6916 12.2471 17.6916 12.31 17.683C12.5925 17.6915 12.8723 17.6247 13.1204 17.4894L13.6124 19.5027ZM21.7981 19.8035H19.0571V19.2432C18.5432 19.7596 17.8354 20.0354 17.1076 20.0031C16.2007 20.0308 15.327 19.6605 14.7161 18.9896C13.4719 17.4468 13.4719 15.2452 14.7161 13.7024C15.3261 13.03 16.2002 12.6588 17.1076 12.6869C17.8354 12.6543 18.5432 12.93 19.0571 13.4464V12.903H21.7956L21.7981 19.8035ZM18.7008 17.3402C18.9441 17.0722 19.0742 16.7205 19.0641 16.3587C19.0741 15.9949 18.9441 15.6412 18.7008 15.3705C18.4697 15.1074 18.1336 14.9606 17.7835 14.9698C17.4358 14.9584 17.1021 15.1065 16.8772 15.3719C16.4134 15.9465 16.4134 16.767 16.8772 17.3416C17.1054 17.6017 17.4376 17.7465 17.7835 17.7367C18.1321 17.7454 18.4671 17.601 18.7001 17.3416M34.0982 13.471C34.5905 14.0284 34.8472 14.7552 34.8143 15.4982V19.808H32.0887V16.0891C32.0994 15.8363 32.0106 15.5894 31.8413 15.4014C31.6855 15.2266 31.4601 15.13 31.2261 15.1377C30.9498 15.1296 30.6861 15.2537 30.5163 15.4718C30.3254 15.7232 30.2283 16.0333 30.2415 16.3486V19.8094H27.5006V16.0904C27.5119 15.8356 27.4208 15.5869 27.2476 15.3997C26.9027 15.0495 26.3394 15.0447 25.9886 15.3889C25.9639 15.4133 25.9407 15.4391 25.9192 15.4663C25.7372 15.7213 25.6463 16.0301 25.661 16.343V19.8035H22.927V12.9027H25.668V13.6281C26.1465 13.0123 26.8942 12.6672 27.6733 12.7025C28.591 12.6369 29.4606 13.1198 29.89 13.9334C30.4069 13.1422 31.2991 12.6779 32.2437 12.7087C32.9472 12.6854 33.626 12.9693 34.1034 13.4866" fill="#2D2D2D"/>
<path d="M38.7738 17.1001C39.4833 17.6548 39.6088 18.6796 39.0541 19.3891C38.4994 20.0986 37.4746 20.2241 36.7651 19.6694C36.0556 19.1148 35.9301 18.0899 36.4847 17.3804C37.0375 16.6734 38.0578 16.5459 38.7675 17.0952L38.7738 17.1001Z" fill="#76BC21"/>
</g>
<defs>
<clipPath id="clip0_43_4310">
<rect width="44.9478" height="30.9854" fill="white" transform="translate(0.0117188 0.0202026)"/>
</clipPath>
</defs>
</svg>
