<svg width="19" height="15" viewBox="0 0 19 15" fill="none" xmlns="http://www.w3.org/2000/svg">
<path d="M0.625 0C0.45924 0 0.300269 0.065848 0.183058 0.183058C0.0658481 0.300268 0 0.45924 0 0.625C0 0.79076 0.0658481 0.949732 0.183058 1.06694C0.300269 1.18415 0.45924 1.25 0.625 1.25H1.77333C2.07667 1.25 2.32917 1.45917 2.38667 1.75833L2.51167 2.40833L3.855 9.465C3.97428 10.0837 4.30495 10.6416 4.79038 11.0433C5.27581 11.4449 5.88578 11.6653 6.51583 11.6667H14.3175C14.9476 11.6655 15.5577 11.4451 16.0431 11.0434C16.5286 10.6418 16.8592 10.0837 16.9783 9.465L18.3217 2.40917C18.3387 2.31885 18.3356 2.22591 18.3126 2.13692C18.2897 2.04793 18.2475 1.96508 18.1889 1.89423C18.1304 1.82338 18.057 1.76627 17.974 1.72694C17.8909 1.68762 17.8002 1.66704 17.7083 1.66667H3.64167L3.615 1.525C3.53233 1.09676 3.30347 0.710533 2.96754 0.432365C2.63161 0.154198 2.20948 0.00136519 1.77333 0L0.625 0ZM3.88 2.91667H16.9533L15.75 9.23167C15.6876 9.56572 15.5099 9.86729 15.248 10.0838C14.9861 10.3004 14.6565 10.4182 14.3167 10.4167H6.51667C5.81167 10.4167 5.215 9.92333 5.08333 9.23167L3.88 2.91667ZM7.5 12.5C7.16848 12.5 6.85054 12.6317 6.61612 12.8661C6.3817 13.1005 6.25 13.4185 6.25 13.75C6.25 14.0815 6.3817 14.3995 6.61612 14.6339C6.85054 14.8683 7.16848 15 7.5 15C7.83152 15 8.14946 14.8683 8.38388 14.6339C8.61831 14.3995 8.75 14.0815 8.75 13.75C8.75 13.4185 8.61831 13.1005 8.38388 12.8661C8.14946 12.6317 7.83152 12.5 7.5 12.5ZM13.3333 12.5C13.0018 12.5 12.6839 12.6317 12.4495 12.8661C12.215 13.1005 12.0833 13.4185 12.0833 13.75C12.0833 14.0815 12.215 14.3995 12.4495 14.6339C12.6839 14.8683 13.0018 15 13.3333 15C13.6649 15 13.9828 14.8683 14.2172 14.6339C14.4516 14.3995 14.5833 14.0815 14.5833 13.75C14.5833 13.4185 14.4516 13.1005 14.2172 12.8661C13.9828 12.6317 13.6649 12.5 13.3333 12.5Z" fill="#232D40"/>
<path d="M3.88 2.91667H16.9533L15.75 9.23167C15.6876 9.56572 15.5099 9.86729 15.248 10.0838C14.9861 10.3004 14.6565 10.4182 14.3167 10.4167H6.51667C5.81167 10.4167 5.215 9.92333 5.08333 9.23167L3.88 2.91667Z" fill="#F4CD17"/>
</svg>
