<svg width="25" height="20" viewBox="0 0 25 20" fill="none" xmlns="http://www.w3.org/2000/svg">
<path d="M12.5847 0.044281C11.4405 0.044281 10.3431 0.498829 9.53401 1.30793C8.72491 2.11703 8.27036 3.21441 8.27036 4.35865H10.7357C10.7357 3.86826 10.9305 3.39795 11.2773 3.0512C11.624 2.70444 12.0943 2.50963 12.5847 2.50963C13.0751 2.50963 13.5454 2.70444 13.8922 3.0512C14.2389 3.39795 14.4337 3.86826 14.4337 4.35865C14.4337 4.84904 14.2389 5.31934 13.8922 5.6661C13.5454 6.01285 13.0751 6.20766 12.5847 6.20766C11.9068 6.20766 11.352 6.76236 11.352 7.44034V9.59752L0.751036 17.5483C0.544062 17.7035 0.391176 17.9199 0.314035 18.1669C0.236894 18.4138 0.239408 18.6788 0.321222 18.9242C0.403036 19.1697 0.56 19.3831 0.769883 19.5344C0.979765 19.6857 1.23192 19.7671 1.49064 19.7671H23.6788C23.9375 19.7671 24.1897 19.6857 24.3996 19.5344C24.6094 19.3831 24.7664 19.1697 24.8482 18.9242C24.93 18.6788 24.9326 18.4138 24.8554 18.1669C24.7783 17.9199 24.6254 17.7035 24.4184 17.5483L13.8174 9.59752V8.48811C14.7069 8.2229 15.4872 7.67787 16.0424 6.93394C16.5976 6.19002 16.898 5.28689 16.8991 4.35865C16.8991 3.21441 16.4445 2.11703 15.6354 1.30793C14.8263 0.498829 13.729 0.044281 12.5847 0.044281ZM12.5847 11.7547L19.9808 17.3017H5.18867L12.5847 11.7547Z" fill="#0D2B3D"/>
</svg>
